<?xml version="1.0" encoding="UTF-8"?>
<svg id="Layer_1" xmlns="http://www.w3.org/2000/svg" version="1.1" viewBox="0 0 200 200">
  <!-- Generator: Adobe Illustrator 29.0.1, SVG Export Plug-In . SVG Version: 2.1.0 Build 192)  -->
  <defs>
    <style>
      .st0 {
        fill: #9d9289;
      }

      .st1 {
        fill: #45322a;
      }

      .st2 {
        fill: #dabf99;
      }

      .st3 {
        fill: #f9e6c6;
      }

      .st4 {
        fill: #a88865;
      }

      .st5 {
        fill: #faf3e3;
      }

      .st6 {
        fill: #4f3525;
      }

      .st7 {
        fill: #f7f6f5;
      }

      .st8 {
        fill: #fdfdfd;
      }
    </style>
  </defs>
  <path class="st1" d="M160.3,50.5c4.4,5.2,5.7,25.1,4,31.7-.3,1.1-1.7,5.2-2.4,5.9-1,1.1-3.4.8-4.8,1.3-1.2.4-2.2,1.6-3.8,1.6h-5.7c.8.4,3,2.9,3.6,2.9.1,0,1.4-1.2,2-1.4,3.9-1.7,8.9.8,9.1,5.2,0,.6-.4,1.5-.1,1.8.2.3,1.6.3,2.1.6s1.2,1.4,1.7,1.5c.3,0,2.5-.9,3.2-1.1,3.5-.7,8.9,0,11.5,2.7,3.2,3.4,1.4,7.8,1.2,11.9,8.6,4.5.8,15-7.1,12.6-.8-.2-1.7-1.1-2.3-1.2-.7,0-1.4.7-2.2,1-1.8.7-3.9.5-5.8.2-.1.8.2,1.5.2,2.3.4,10-.2,20-.5,30l10.4.5c2.3.6,12.9,1,14.1,2.6.3.4.5.9,0,1.2-.9.5-2.7.9-3.8,1.1-11.1,2.1-24.9,2.3-36.3,2.8-33.3,1.4-67.3,1.4-100.7-.2-10.1-.5-21.6-.7-31.5-2.5-2.8-.5-7.2-1.8-1.7-3.3,3-.8,8-1.2,11.2-1.5,2-.2,4.2-.2,6.2-.2-.2-4.7.3-9.4.2-14.1,0-.7-.2-1.3-.3-1.9-.1-4.9-.2-9.8-.3-14.8-4-.9-5.9-5-8.4-7.9.1,5.2-2.1,8-7.6,7.3-4-.5-5.6-3.7-5.8-7.4-.3-8.5,1.5-17.6,2-26.1,1.4-6.3,12.7-5.9,13.3.8.3,0,3.1-3.6,3.9-4.2,3.1-2.2,7.7-.9,8.9,2.8,0,.2,0,.5.4.4.8-.3,3.2-2.6,4.1-3.3.4-.3,1.9-1,1.9-1.1.8-1.2-4.1-1.2-4.4-1.3-3.5-.8-4.8-4.1-6.1-7.1-1.8-4-1-9.8-.4-14.2.5-4,2.9-15.3,6-17.8,2-1.6,8.2-1.5,10.7-1,1.1.2.9,1.6,1.3,1.7.3,0,4.3,0,4.6,0,.5-.2.8-1.5,1.8-1.7,1.4-.3,6.7-.2,8.3,0,1.4.1,1.6.5,2.2,1.7,4.9,0,9.8,0,14.6,0,.6,0,1.1.3,1.7.3.9,0,7.2,0,7.4-.3.3-.3-.2-1.7,1.7-2.3s8.4-.6,10.3,0c2.4.6,1.4,2.1,1.7,2.4.2.2,4.1,0,4.7,0l7.9-23c1.6-1.3,8.7,0,10.8.6,3.5,1,7,2.9,9.6,5.5.6-1.3.8-2.5,1.6-3.7.6-.9,3.7-3.5,4.6-3.7.5-.1.9.2,1.3.1.2,0,.5-.4.8-.5.6,0,.7.8.9.9.9.5,1-.8,1.5,1.3.6,2.5.2,4.5,0,7l3.3-2.6c.9-.4,2.6-1.8,3.6-1.5.3.1.5.6.8.7.3,0,.8-.3,1.4-.1,1.9.4.7,2.4.9,2.6.3.3.9-.7.7,1.6-.2,3-2.6,8.6-5.4,9.9-.2,0-.6-.2-.5.5-.5.2-.8.3-1.2.5-.5.2-1.6.3-1.5,1-.2,0-.7,0-.7,0-.5,0-.6,0-.5.5-.3,0-.5.2-.7.2-1.7.5-2.5,1.1-3.9,2.1-.2.6,2.1.4,2.3.3.6-.2.1-1.4,1.6-1.9,2.4-.8,5.8.1,8.1,0,.1.3.5.3.7.2.2,0,.3,0,.5,0l1.2.5h0ZM147.6,35.5c.4-1.6.9-3.2.7-4.9l-1.5.2v-1.7c-1.3-.5-1,1-1.6,1.2s-.6-.4-.6-.4c-.7-.3-1.2,1.3-1.6,1.7s-.9.2-1.2.5c-.5.5-.7,2.2-.6,2.9-.2,0-.4,0-.5.2-.4.9-1,4.7-.7,5.5s3.7,1.8,4.6,1c.7-.6,2.6-3.8,2.8-4.8.1-.5,0-1.1.1-1.5h0ZM131.3,52.9c1.6-5,5.5-10.6,7-15.4,0-.3.2-.7,0-1l-18.3-6.4-14.2,44.1c3.5,1.2,7,2.6,10.5,3.8.5.2,2.1.9,2.4.7,5.5-8,8.7-17,12.5-25.9ZM150.1,38.2c0,0-.2.2-.2.2,0,0,0,.2,0,.2s-.5,0-.8.5c-.9,1.2-1.6,2.7-2.3,4.1.9,1.2,2.6,3.4,4.2,3,.9-.2,4.3-1.9,4.8-2.5.3-.3.5-.9.7-1.3.4-.8,2.1-5.5,1.7-5.9h-1l.5-2.2c-.4-.4-2.6.9-3.1.9-.4,0-.7-.3-1.3,0-.4.2-2.7,2.6-3.2,3.1h0ZM148.6,47.5c.3-.4-2.2-2.3-2.8-2.2-.8.2-2.5,4.8-3.5,4.6-.4,0-.4-.7-.3-1,.2-1.3,2.2-4,1.9-4.9-.2-.6-3.2-1.1-3.9-1.1l-.7,7.9c1.4.9,3.1,2.4,4.1.3l5.1-3.6h0ZM138.4,43.1c0,0-.6,0-.5.3-.4,1.9-2.3,4.3-2.8,6-.3,1.2,2.5.8,2.6.6.3-.5.9-6.7.7-7h0ZM103.7,51c0-.2.7-.3-.5-.8-1-.4-1.4-.1-2.3-.1-1.8,0-3.8,0-5.7.2-.8,0-.6-.1-.6.7,0,0-.4.2-.5.2-.2,0-.4,0-.6.2-1,1.5.7,2.8-2.3,2.5-.6,0-1.1-.2-1.7-.2.1-.7-.4-.5-.8-.5-3.8-.1-8.2-.2-12,0-.5,0-1-.2-.8.5-1.4,0-2.8,0-4.2,0,.1-.7-.4-.5-.8-.5-.9,0-3.6-.2-4.3.4-.4.3-.2.6-.2.8,0,.2-.2.5-.2.7-1.1,0-1.3,2.2-1.5,3.2,0,.2,0,.3,0,.5-.9-.2-.7,1.7-1,1.9-.3.2-1.1,0-1.4,0,0-.1,0-.4,0-.5,0,0,.4,0,.5,0,.1-.1-.2-.5-.2-.5,0-.4.2-.5.2-.7.7.1.7-.3.2-.7,0-.3.1-.7.2-1,.7,0,1-1.8,1.2-2.4,0-.2.2-.5.2-.7.8.3,1.3-.9,1.2-1.5,0-.2-.4-.3-.5-.4,0,0-.2-.2-.2-.2,0-.1.3-.4-.3-.5s-1.9-.2-1.6.5h-1c.3-1.2-1.3-.7-1.9-.6-.4,0-.9,0-.8.6-1.2,0-.7.2-1.2.5-.1,0-.5,0-.7.1-.8.5-.5,1.5-2.2,1.3,0,0-.4-.3-.8-.3-.9,0-3.7-.2-4.2.2-.7.5-2.3,6.1-2.3,7.3h4.8c.8-1.4,1.1-3.1,1.6-4.6.8-.2.5-.8,1.4-1.4.4-.2.7-.4,1.3-.3-.2.5-.5,1.2-.7,1.7,0,.1-.2.2-.2.5,0,.1,0,.4,0,.5,0,0-.2,0-.2.2-.5,1.5-1.1,3.8-1.4,5.3-.3,1.7-.6,3.4-.6,5,0,.3.4,0,.5.2.8.3,1.7.7,1.5-.5.2,0,.7.1.7.2.2.3-.4.2.5.5s.5.5,1,1v1.5c0,0,.7-.2,1-.2.2.8.2.3.5.5.2,0,.4.2.5.2,1.1.7.7,2.1,1.7,2.2,0,0,0,.2,0,.2.1.7,0,1.1,1,1,0,.1.2.3.2.5s0,.6.2,1.1c.5,1,1.9,1.9,2.4,3.1,1.2-.2,2.3.3,3.4.3s1.3-.3,1.9-.3c4.3,0,10.7.6,14.7,0,1.6-.2.6-1.5,1.7-1.7.6-.1.4.6.4,1,0,.3-.2.6-.2,1.2-.9-.3-1,1.1-1,1.6,0,.7.3,1,1,1.1,0,0,.2,0,.2,0,0,1.7,1.2.5,1.8.5.9,0,2.2.6,3.1.7-.3.5-.2,1-.2,1.5-.8.1-1.7,1.9-1.7,2.5,0,.2.2.3.2.4v.5c0,.2-.2.2,0,1,0,.3.2.7.2,1,.3,1.4.4.6.9,1.1.1.1.2.6.4.9,1.1,1.3,1.2.4,2.2.2,2-.3,2.4.4,3.5-1.7.4-.3,1-.3,1.2-1.1.1-.5-.4-.3-.5-.3,0,0,0-1.9,0-2,0,0,.5,0,.5-.1s-1.1-2.9-1.7-2.8c0-.3,0-.7-.2-1,.2,0,.6-.7,1.1-.7.1,0,2.3,0,2.4,0,.5,0,.7.6,1.5.5.2,0,1.6-.8,1.6-.9.4-.6.4-4.3-.3-4.7l-9,.2c0-.3,0-.5.1-.8.5-.7,5.7.3,6.7-.6s-.2-1.6-.3-1.7c0-.7.7-1.8,1.5-1.8,0,.2.5.2.5.2.2.2,0,1,.7.6,1.2-.7,1.6-4.5,2-5.6.2-.5.8-1,1.1-1.6.4-.9.4-2.3.7-3.2.2-.6,1.6-.7-.4-1.3-.2,0-.3-.2-.7-.2,0-1,1.4-.8,2.1-1.2,1.3-.9.5-1.9.6-2.7,0-.2.4-.2.5-.3.4-1.1,1.6-4.3.3-4.5,0,0-.2,0-.2,0-.2,0-.3,0-.5,0,.1-.7-.4-.5-.8-.5-.5,0-1.2.1-1.7,0s-.1-.8-1-.7c-1.5,0-.6,1.1-.6,1.5v.2s-.2.3-.2.5c-1.6,0-.8,1.2-1,2.3-.2,1.3-.7-.4-.7-1.2,0-1.5.8-2,.7-3.7,0-.3-.2-.5-.2-.6,0-.2,0-.3,0-.5h0ZM158.1,51.4c-2.4-.4-5.3.5-7.8.2-.4,7.7-1,15.5,0,23.2,0,.6-.1,3.8,0,4.3,0,.3.6,0,.8.1,0,0-.1.4.2.5.4,0,1.7-.2,1.8.4,0,0-.4,1.3-.5,1.3s-.4,0-.7.4c-.6.9.4,1.6.8,2.6.3.7.8,3.1,1.5,3.3.6.2,5.2,0,5.7-.3,1.1-.8-.8-2.7-.5-3.7h1c0,.2,0,.3,0,.4.2.9,0,1.6,1.2,1,.9-.4.4-1.1.6-1.8.2-.6.7-1.2,1-2s.9-2.7-.3-2.8c.2-1.4.2-2.5.2-3.9.7.1.5-.4.5-.8.1-4.6,0-9.6-1.6-13.9-.3-.8.2-1.9-.9-1.7-.1-.8.4-1.4-.7-1.2-.1-.8-.9-1.9-1-2.6-.1-1,.8-2.7-1.2-3h0ZM48.4,52.4c0-.2.3-.4.2-.7-2.2.1-5.8-.3-7.8.7-.6.3-2.4,5.1-2.8,6.1-2,5.9-3.2,12.8-2.9,19,0,.8-.3,1.5.7,1.8.6.2,3.5,0,4.3-.1.2,0,3.3-2.5,3.4-2.7.6-1.3.4-5.6.6-7.4.7-6.1,2.5-10.8,4.2-16.5h0ZM123.7,81.3c0,0,.9,1.6,1.7,1.2l15.3-27.6c.5-.9-1.5-1.9-2.1-2-.2,0-.5,0-.7.1-5.9,8.5-11.5,17.3-16.8,26.2-.1.8,1.3,1.4,1.9,1.9.2.2.6,0,.7.1h0ZM134.4,53.6c-.8-.8-1.9,1.4-2.1,2-.3.8-1.1,3.3.2,1.6.3-.4,2.2-3.3,1.9-3.6h0ZM148.4,79.1l-.4-25.4h-3.9c-1.5,1.3-2.1,2.9-3,4.6-.2.4-.6.6-.7,1-.2.4-1.1,2-.4,2h4.9c.2,0,.5.8.4,1-.4.5-5.6,0-6.6.3l-8.6,15-.5,1.5h18.8ZM52.6,62.4h-5.1c-.5.9-2,11.8-1.3,11.7l5.2-4.1,1.3-7.7h0ZM77.5,98.1c0-.4,0-.6-.2-.9-5.9-9.3-13.8-17.4-20.7-26-.3-.3-.8-.7-1.2-.7s-4.7,3.2-5.5,3.8c-3.1,2.4-6,5.1-9,7.6,4,5.7,8.5,11,13.1,16.2h23.6ZM115.1,80.8c-.7-.3-1.4-.7-2.1-1-2.7-1-5.4-2-8.2-2.9.7,1.5,1.4,6.5,0,7.4-.7.4-2,.3-2.2.5-.9,3-2.2,5.9-2.9,9l1.9,1.6c.5-5.8,4.4-5.7,9-4.9,0,0,.1.3.3.2.9-.2,5.1-7.8,6-8.9.3-1-1.4-.8-1.9-1.1h0ZM36.2,81.5c-.4.6,2,4.8,2.7,5.2.6.3,2.9.9,2.5-.3-.3-1-1.9-2.5-2.5-3.4-.8-1.4-.2-2.3-2.8-1.4ZM122.5,83.7c-.5-.4-2.4-2.4-3.2-1.9l-6.4,11.1c1,1.6.7,3.4.7,5.3.2,0,.5,0,.7,0,.7,0,1.7.2,2.2-.3l7-12.1c.9-1.3-.5-1.5-1.1-2h0ZM89.4,98.1c.2-.2,1.3-4,1.2-4.2,0-.7-3-4.1-3.2-5.3-1,.6-4.8,1.6-5.4,2.3-.2.2-.3.3-.1.6l4.5,6.5c.3.2,2.8.2,2.9,0h0ZM135,98.1c.2.1,2.8,0,3.1,0,.7-.3,3.2-4.3,4.1-4.9-.7-.9-4.1-4.4-5-4.5l-4.7,5.8c.5.8,1.4,1.3,1.9,2.2.2.3.5,1.5.6,1.5h0ZM146.9,93.7c-.7-.6-4.9-4.3-5.5-4.2-1.7.3,1.7,2.4,1.9,2.6.8,1-1.8,3.6-2.4,4.4-.2.3-.5,1-.5,1.1,0,0-.7-.2-.5.4.3.7.7.1.7.1h.5c1.1,0,3.2.2,4-.2.2-.1,2.5-3.2,2.5-3.4.2-.8-.5-.6-.7-.8h0ZM77.8,91h-1.9c-.2,1.1.6.8,1.4.6.4-.1.6,0,.5-.6h0ZM84.3,98.1l-3.1-5.1c-1.1-1.7-2.8.2-4,.6.3.6,3,4.5,3.3,4.5,0,0,3.8,0,3.8,0ZM50.6,98.1c.3-.2-3.3-4.4-3.5-4.9-.3,0-4.2,3.2-4.3,3.6-.2,2.4,6.4,1.2,7.8,1.3ZM108.1,111.3c.4-4.6,1.7-9.2,1.9-13.8,0-.7,0-1.7,0-2.4-.4-1.8-3.6-2.3-4.6-.8-.8,6.9-2.3,13.8-2.9,20.8-.1,1.7-.6,6.2-.2,7.5s3.7,2.3,4.7,1.2c.4-1.2,0-9,1.9-8.6,2.6,3.4,6.3,11.8,11.8,9.4.6-.2,2.1-1.3,1.6-2.1-4.2-1.5-6.3-5.7-8.9-8.9,0-.4,0-.5.3-.7.4-.5,3.1-1.8,4-2.6,1-.8,2.9-2.6,2.8-4s-1.4-2.7-2.9-2.8c-1,0-3.5,3.2-4.4,4-1.1.9-3.2,2.8-4.3,3.6-.3.2-.5.3-.9.2h0ZM20.3,111.6c.5-.1.5.2.7.4,2.5,2.9,8.1,12.7,11.2,13.9,1.4.6,4,.2,3.3-1.6l-10.4-15.1c1.7-2.3,9.8-9.8,9.8-12.5s-2.4-2.7-3.7-1.5c-3.6,4.3-6.5,9.2-10.9,12.8-.4-4.8,5.2-16.1-4.5-12.7-.3.3-.5,2.4-.6,3-.6,5.9-1.3,12.7-1.5,18.6,0,1.6-.2,5.2,0,6.6.4,1.6,3.8,2.5,5.1,1.5l1.2-13.5h0ZM101.8,103.3c-1-.3-3.6.2-4.8,0-.2-1.5,1.8-5.9.6-6.9-1-.8-3.5-1.2-4.1.3s-.9,5.4-1.6,6.4c-.7,1.1-3.8-.9-3.9,2.2-.1,2.4,1.1,1.8,2.9,1.8-.2,5.4-3.7,17.8,5.2,17.6,1.7,0,5.5-1.6,5.5-3.6s-1.9-.3-2.9-.2c-2.6.4-3.5-.8-3.7-3.2-.3-3.4.7-7.2,1-10.6,1.2-.1,4.5,0,5.4-.6.8-.6,1.1-3.1.4-3.3h0ZM157.4,103.3c0-1.6,1.5-4.8,1.1-6.1-.4-1.2-2.6-1.7-3.6-1.4-1.4.4-2.1,7.4-2.6,7.7-.9.6-3.8-1.2-3.8,2.4,0,1.9,1.7,1.2,3.1,1.3-.5,5.1-3.7,17.6,4.8,17.6,2.1,0,6.6-1.6,5.2-4.4-.8-.6-5.3,3.2-5.8-2.1-.1-1.3.4-10.7,1-11.1,1.1-.2,4.3,0,5.1-.7s.8-3.3.5-3.3h-4.9,0ZM128,96.7c-3.4.7-3.5,5.9,0,6.3,4.9.5,4.9-7.3,0-6.3ZM56.5,100.8h-19.1c0,.6,0,.4.4.5.9.1,1.8-.1,2.8.1,1.2.3,2.9,2.2,3.8,2.1.5,0,1.3-1.1,2-1.5,1.2-.7,3-1,4.4-.7,1.1.2,2.2,1.6,3.3,1.1l2.5-1.6h0ZM64.1,100.8h-4.4c-.1.6,0,.4.3.6,1.8,1.3,1.9,1.5,3.8,0,.2-.2.5,0,.3-.6ZM77.5,100.8c-.3-.2-6.6.2-7.6,0-.1.6.1.4.3.6.4.3,2.8,2.2,3,2.2.4,0,3.1-1.8,3.9-2.2.2,0,.8-.1.3-.5ZM137.9,100.8c-2.6-.2-3.1-.2-3.4,2.4l3.1-1.9.3-.5h0ZM81.6,104.1c-3.4,0-6.7,2.2-6.5,5.9.2,4.5,7,7.3,7.1,10.5,0,2.6-5.8,2.8-6-.8,0-1.2,1.9-4.5-.7-3.5-2.2.9-3.1,4.8-1.7,6.6,3.4,4.5,13.3,2.8,13-4.2-.2-4.7-7.1-7.1-7-10.1,0-2.1,3-2.4,4-.8.6.9.2,2.7,1.7,2.4,1-.2,1.4-2.1,1.2-2.9-.4-2.3-3.1-3.1-5.1-3.1h0ZM142,104.2c-.1,0-.7,0-.7,0-.4-.2-.7.2-1,.2-.3,0-.7.1-1,.2-1,.4-1.5.6-2.2,1.5,0,0-.3.1-.4.4,0,.2,0,.4,0,.6-1.1.1-1,2.6-1,3.3,0,.3.2.5.2.6,0,.2,0,.3,0,.5.2.9.3.3.5.5,0,0,.4.6.5.7,0,0,0,.5.1.7,2,2.8,6,4.3,5.5,8.1-.3.3-.7.4-1,.7-1.8.3-3.4.2-4.6-1.2v-.2c0-.3,0-.6-.2-.7,0-.5,0-1,0-1.5,0,0,.2,0,.2-.5,0-.2,0-.3,0-.5.9-.8.7-1.8-.6-1.7-.4,0-.5.4-.6.4s-.3,0-.5.2c-1.3,1-.8,1-1.2,2.2,0,.1-.2.2-.2.5,0,.2-.3.3-.3.9s.2.7.3.8c0,.4,0,.6.2,1,.6,1.5,2.4,2.9,4.1,2.9h.5c2.4.8,6.6-.3,7.6-2.7,0,0,0-.2,0-.2.6.2.7-.6.8-1,.7-2.9.3-4.1-1.5-6.3,0,0-.2-.2-.2-.2-1-1.1-4.3-3.8-4.7-4.7-.6-1.4-.1-2.2.8-3.1.3,0,1.4,0,1.5,0,.5.3,1.2.5,1.6,1,.4.7.6,4.4,2.4,1.9,1.6-2.1-.1-4.9-2.6-5.1h-.2c-.4-.3-1.6-.7-1.9-.2h0ZM181.6,119.7c-.6-.4-2.9,2.5-3.7,0-.9-3,1.3-8.7,1.1-11.8-.2-1.9-3-3.1-4.6-3.4-8.9-2.1-13.2,7.4-12.5,14.9.3,3.5,3.6,6.3,7.1,4.9,2-.8,2.6-2.4,3.6-4,.7-1.1.7,1,.9,1.6.7,2,2.5,3,4.6,2.6,1.9-.3,4.6-2.7,3.6-4.8h0ZM66,108.9c1.8,2.1-4.3,15.2,3.1,15.6,1.2,0,3.7-1,3.8-2.3.1-2.1-2.1,0-2.4-2.2-.6-3.7,3.7-14.6-2.4-15.5-4.5-.7-5.7,2.9-7.9,5.8.4-2.7.8-5.8-2.8-5.6-3.1.1-1.8,2.1-1.8,4.1,0,4.1-1.2,8.6-1.3,12.5,0,2.6,3.7,3.7,4.7,2.2.5-.7.9-5.4,1.3-6.8.5-1.8,2.8-7.6,4.8-8,.3,0,.8,0,1,.3h0ZM51.2,120.8c-.9-.6-.4-5.7-.2-6.9.2-1.8,1.5-6.2,1.1-7.6-.3-1.5-2.3-1.6-3.5-1.4-1.8.3-1.8,3.9-2.2,5.4-.5,2-2.5,8.8-4.3,9.7-2.6,1.2-2.3-3.3-2.2-4.6.2-3.3,3.7-11.5-2.3-10.7-1.5.2-1.7,3.2-2,4.6-.8,4.3-2.5,14.9,4.2,15.2,3.7.2,4.2-2.5,5.7-4.8.2-.2,0-.4.5-.3-.2,2.7,1,5.3,4,5.1,1.8,0,4.3-1.9,3.8-3.9,0-.1-2.1.6-2.7.2h0ZM133,120.1c-.4-.3-2.7,1.8-3.5.2-1-2.1.9-9.2,1-11.8,0-.8.2-2.2-.4-2.8-.9-1.1-4.2-1.1-4.7.5-.2,4.7-5,20.1,4.3,18.2,1.8-.4,4.2-2.2,3.2-4.2h0ZM88.5,125.5s0-.5-.5-.8c-1.4-1.1-1.3.7-1.6,1.3-.3.7-1.6.4-1.3,1.5-.2,0-.3.2-.5.2-2.5.3-4.9.5-7.5.5-.3,0-.6.2-.6.2-.2,0-.3,0-.5,0,.1-1.4-2.3-1.9-3.3-2-1.1,0-1.6.6-2.4.7-.9.1-1.7-.2-2.4-.2-.6,0-.7.4-1.9.2-.3-1-.7-.5-1.4-1.1-.8-.7-.5-1.7-2.3-1.6-1.6,0-2.8,2.5-4.4,2.6-1.1,0-2.2-.7-3.4-.7-1.4,0-4.9,1.2-6.3.9-.8-.1-.8-.6-2.4-.7-.2,0-.3,0-.5,0s-.3-.4-.8-.2c-.7.2-.6,1.8-1.6,1.4,0,0-.2-.2-.2-.2-.2-.3,0-.7-.6-.7-.3,0-3.7.4-4.1.6-.5.1-1.2.8-1.7,1-.8.4-1.9,0-2.4,1.3.2,4.5-.5,9.7,0,14.1,0,.8,0,1.7,1,1.8v2c-.7,0-.7.3-.8.8-.3,2.9.2,6,.3,8.8,0,.6-.3,1.4-.2,2.2,0,.5-.2,1,.5.9v.5c-1.2.3,0,3.2.4,3.2h13.6c.1,0,.5-2.1,0-2.4,0-.3,0-.7,0-1,.7.1.5-.4.5-.8,0-1-.3-3.7.6-4,.5-.2.3.3.4.6,0,1.2-.3,2.7.2,3.8,0,.9-.2,1.9,0,2.7.5,2.1,1.2.4,1.9.3.3,0,1,.2,1.4.2,28.9-.2,57.8-.1,86.8,0,.6,0,1.1-.2,1.5-.2.8,0,1.8,1.6,2.7-.3.2-.4-.1-.4-.1-.5v-1c.8-.1,1.1-1,1.9-.7,0,.6,0,1.3,0,2v.2c0,.1-.5.6-.2,1,.4.2.9.2,1.3.3,2.8.2,8.3.3,11,0,.6,0,.9,0,.8-.8.2,0,.3,0,.5,0,.2,0,.5,0,.7,0-.1-.9.3-2.1-.2-2.9v-.7c.5-1.4.2-3.1.2-4.5,0-.3.2-.6.2-.7v-4.2c0,0-.2-.4-.2-.7,0-.4.1-.9,0-1.2,0-.3-.5-.1-.5-.2,0-.1,0-.6-.7-.7,0-.6.4-1.2.7-1.7,0,0,.3,0,.5-.2.5-.8,0-11.6,0-13.6,0-1.4.8-3-.2-4.3-1.1-1.6-1.7-.4-2.8-.2-.6,0-2.6.1-3.2,0-1-.2-.8-1.1-.9-1.2-.5-.4-1.5,1.1-2.3,1,0,0-.9-.9-.9-.9-.3-1.1.6-1.5-1.6-1.5-1.6,0-.9.6-1.1,1.1,0,0-1.3.8-1.4.9-2.4,1-6.1,2-8.6,1.3-.4-.1-.6-.6-1-.7-2.2-.8-3.6-1-5.9-.6-.7.1-1.6.6-2.3.7-.9,0-2.5-.6-3.5-.7-.3,0-.7,0-1,0s-.2-.3-.8-.2c-.7.1-1.5.9-2.4,1.1-.9.2-2.8.5-3.7.6-.3,0-.7,0-1,0,0-1.6-2.4-1.3-2.9-1.8-.3-.2-.2-1.4-1-1.8-.7-.3-.9.1-1,.1h-.7c-.2,0-.9-.5-1.4-.2-.3.2-.5,1.8-.6,1.9-.1.1-1.3,0-1.7.4-.3.3-.2.7-.2.8,0,0-.3,0-.5.2-.2.3-.2,1-.2,1.1-.6.6-.3-1.1-1-.7v-.2c0-.2,0-.5,0-.7-1.8.8-2.7-1.6-4.5-.5-.8.5-.3.9-.3,1,0,1.2.8,2.7-.2,3.7-.4.4-.4.4-.7.7-.8.9-2,.4-2.9,0-.1-.7-.1-1.2-1-1-.2-.4-.2-.6-.2-1h1.2c0,.9,1.2,1.4,2,1.2.4,0,.5-.4.7-.4,0,0,.4,0,.5,0,.2-.2-.2-.5-.2-.5,0-.2,0-.7,0-1,0,0,.4-.3.2-.5s-.4,0-.5,0c-.1,0-.2,0-.2-.2,0-.2,0-.8-.4-1-.5-.2-.9.2-.8.7-.3,0-.6.2-.7.2-.6,0-1.1-.3-1.7-.2,0-.2,0-.3,0-.5,0-.2,0-.9,0-1s-1.9-.3-2.2-.3c0,.3,0,.7,0,1v.5l-1.5-.2c-.1-.7-.4-.6-.5-.7-.2-.4-.6-1.3-1-1.6-.4-.2-.9,0-1-.1h0Z"/>
  <path class="st2" d="M149.8,49.2v.5c-1.5.5-1.1,1.7-1.6,1.9-.2,0-2.5.3-2.3-.3,1.4-1,2.2-1.6,3.9-2.1h0Z"/>
  <path class="st2" d="M153.2,47.5c.2.6-.9.8-1.5,1-.1-.7.9-.8,1.5-1Z"/>
  <path class="st2" d="M159.1,50c0,0,.3-.4.9,0,.4.2.2.5.3.6,0,0-1.2-.5-1.2-.5Z"/>
  <path class="st2" d="M157.9,49.7c.2,0,.9-.8.7.2-.3,0-.6,0-.7-.2Z"/>
  <path class="st2" d="M151.1,48.5c-.2.2.4.2-.5.5,0-.5,0-.5.5-.5Z"/>
  <path class="st2" d="M155,46.5c.1.8-.2.4-.5.5-.1-.7.3-.4.5-.5Z"/>
  <path class="st4" d="M111,124.8c1,1.3,3.2,3.1,4.9,3.4.3,0,.7,0,1,0-.1.7.4.5.8.5,2.2,0,4.4-.4,6-1.9.3,0,.7,0,1,0,.5,1.4,3.5,1.6,4.7,1.4,1.1-.1,3.3-1.2,4-1.2.4,0,1.3.8,1.9,1,3.5,1.3,7.3,1.4,10.7-.4.7-.4,2.5-2,2.8-2.1.5-.1,1.1.5,1.1.8v12.5c0,.3-.6.4-.8.4-4.8.6-11.4-.2-16.4-.3-5.2,0-10.2-.3-15.4,0-.8,0-3.6-.2-3.9.2-.7,1.1.6,1.2,1.5,1.2s1.8,0,2.6,0c-.1.7.4.5.8.5,7.4.3,19.2,1.5,26.2.2.5,0,1,.3.8-.5h4.4v5.5c-1.9,1.1-3.1,2.2-4.3,4.1-.4.6-.8,2-1.5,2.2-8.9,0-17.8.3-26.7.2-17.6,0-35.5-.9-53.3-.5-4.2,0-8.5.9-12.7.5-1.8-.2-1.3-1.5-2.1-2.8-1-1.5-2.9-2.8-4.5-3.6-.3-.6.1-.9.1-1.1v-4.5c.9,0,1.8,0,2.7,0l-.4.5c11.5,1.8,23.1,0,34.7-.5,3.3-.1,7.3.3,10.5,0,.4,0,.8-.1,1.1-.5,2.2,0,4.7.2,6.9.3.5,0,3.2,0,3.3-.3,0,0,0-.7,0-.7-.3-.4-4.6-.2-5.5-.2-12.3-.6-24.8,0-37.1,0-5.4,0-10.9-.1-16.2.2-.3-1.6,0-3.1,0-4.8,0-2.2-.5-4.6-.3-6.8,0-.6.3-.7.8-1.1.2,0,.3,0,.5,0,1.7,1.6,4.2,1.7,6.4,1.1.7-.2,1.5-.8,2-.8,2.2,0,3,1.6,6.2,0,1-.5,1.9-2.1,2.6-2,.2,0,1.1,1.8,3.1,2.2,0,.2-.1.3.1.5s2.3.5,2.7.5c1.4,0,3.6-1.1,4.4-1,.6,0,1.9,1.1,2.8,1.2.2,0,.3,0,.5,0,2.1.9,5.3.6,7.5-.2.4-.1.5-.5.6-.5.2,0,.3-.2.5-.2.1,0,.5,0,.7-.1l2.7-1.8c.4,3-1.4,5.6,2.7,5.6h.2c.2,5.2,8.2,6.2,10.9,2.4.3-.5.8-1.9,1.1-2.1.7-.4,2.4,0,2.7-1.5,0-.4,0-2.2.2-2.3,0,0,.7,0,1,0,1.2-.4,2.6-1.6,2.9-2.9h.7,0ZM79,130.6h4.5v-1c-1.2.5-2.6,0-3.8.3-.4,0-.8.1-.7.7ZM119.8,129.9c-2.2.3-4.5-.5-6.7-.2-.3,0-.2.8.5,1,.6.1,5.4.1,5.8,0,.3-.1.5-.4.4-.7Z"/>
  <path class="st5" d="M116.4,78.1c-3.5-1.2-7-2.6-10.5-3.8l14.2-44.1,18.3,6.4c.1.2,0,.7,0,1-1.4,4.8-5.4,10.4-7,15.4l-14.9,25.2Z"/>
  <path class="st4" d="M59.9,154.4c9,.7,17.8.2,26.7.2,11.8,0,23.5.8,35.2,1,4.8,0,9.6.3,14.4,0,.8,0,2.6-.2,3.3-.4.4-.1.8-.2.8-.8h3.9c0,2.4,0,4.7,0,7.1v1l-94.1.5c-.2-.8,0-1.8,0-2.7,0,0,.2-.3.2-.6,0-1.7,0-3.4,0-5,2.2,0,4.3,0,6.5,0,1,0,1.9-.4,3-.2h0Z"/>
  <path class="st4" d="M66.8,54.4c7.2,0,14.6.6,21.9.3.9,0,1.7-.3,2.6-.3-.2,2-1,4.3-1.4,6.3-.9,5.3-1.1,10.8-1.1,16.2-2.2-.2-2.9.1-3.6,2.2h-18.3c-1.6-.2-2.7-3-4-3.7,0-.2-.2-.3-.2-.5-.2-.5-.2-.9-1-1,0,0,0-.2,0-.2-.1-.7-.4-2.2-.2-2.8,0-.2.4-.2.5-.3.2-.8.2-2.1.4-3,.2-1.1.8-4.3,1.3-5,.4-.5,2.7,0,3.5,0-.1.8.4.5.8.5,4.9.4,10.3.2,15.2-.2.5,0,1,.3.8-.5.6,0,3.7.2,3.4-.8-.2-1.2-3.5-.4-4.3-.4-.5,0-.9-.2-1.4-.2-5.8,0-11.7.1-17.5.3-.1-.9.3-1.6.5-2.4,0-.2,0-.3,0-.5.8-.7,1.1-2.2,1.5-3.2,0-.2.2-.5.2-.7h.5,0Z"/>
  <path class="st3" d="M77.5,98.1h-23.6c-4.5-5.2-9-10.6-13.1-16.2,3-2.5,6-5.2,9-7.6.8-.6,4.9-3.8,5.5-3.8s.9.4,1.2.7c6.8,8.7,14.7,16.7,20.7,26,.2.3.3.5.2.9h0ZM54,91c0,0,1.1-1.6,1.4-1.9.8-.8,1.6-1.2,2.7-1.2,3.1,0,9.5,4.6,12,6.6.7.6,1.9,2.3,2.7,2.2,1.1,0,.4-1.2,0-1.7-2-2.6-9.9-8-13.1-8.7-2.6-.6-4.9.6-6.4,2.7-.8,1.1-.5,2.7.7,2h0Z"/>
  <path class="st6" d="M124.7,126.7c1,.1,2.6.7,3.5.7.7,0,1.6-.5,2.3-.7,2.3-.4,3.7-.2,5.9.6.4.1.6.6,1,.7,2.5.7,6.2-.3,8.6-1.3.2,0,1.4-.8,1.4-.9.3-.5-.4-1.1,1.1-1.1,2.2,0,1.3.4,1.6,1.5,0,0,.8.9.9.9.8.1,1.8-1.4,2.3-1,0,0-.2,1,.9,1.2.6.1,2.6,0,3.2,0,1.2-.2,1.7-1.4,2.8.2,1,1.4.2,2.9.2,4.3,0,2,.5,12.8,0,13.6-.2.3-.5.2-.5.2v-17.8c-2.6.3-5.4.6-7.9-.5-.2,0-.1.5-.1.7-.2,3.4-.2,7-.3,10.4,0,1.9,0,3.9.3,5.8-.1.4,0,1-.2,1.5h8.3c-.4.5-.8,1.1-.7,1.7-1.8-.3-7.6.1-9.2,1-4.8,2.6-3.9,7.8-3.8,12.2-.9-.2-1.2.6-1.9.7,0-2.4,0-4.7,0-7.1-1.3,0-2.6,0-3.9,0-10.6,0-21.1.1-31.7,0-15.3-.1-31.3-1.2-46.7,0-.7,0-1.4,0-2.1,0-1.2,0-2.1.2-3,.2-2.2,0-4.3,0-6.5,0,0,1.7,0,3.4,0,5,0,.3-.2.6-.2.6-.5-1.1-.2-2.6-.2-3.8,0-.3.1-.8-.4-.6-1,.4-.6,3.1-.6,4,0,.5.2,1-.5.8,0-1.2.2-5.5-.2-6.4.4-1.1-.4-1.4-.5-1.6-.7-1.6-.9-2.3-2.3-3.5-3.2-2.5-6.8-1.6-10.6-1.7v-1.7c-.9-.1-.9-1-1-1.8-.5-4.4.3-9.6,0-14.1.5-1.3,1.6-.9,2.4-1.3.5-.2,1.2-.9,1.7-1,.4,0,3.8-.6,4.1-.6.7,0,.5.4.6.7-1.4.8-3.1.2-4.5.5-.6.1-1.2.8-1.8,1.1-.5.2-.9.2-1.3.3-.1,0-.3.1-.4.2-.2,4.2-.2,8.4-.1,12.6,0,.7.2,1.3.2,2.1v1.2c2.4.4,5.6-.3,8.1,0v-17.8c1,.3,1-1.2,1.6-1.4.5-.2.8.2.8.2-.5.3-.7.4-.8,1.1-.3,2.2.2,4.6.3,6.9,0,1.6-.3,3.2,0,4.8,5.4-.4,10.8-.2,16.2-.2,12.3,0,24.8-.5,37.1,0,.9,0,5.2-.2,5.5.2,0,0,0,.7,0,.7-.2.2-2.8.3-3.3.3-2.3,0-4.7-.2-6.9-.3-7.8-.2-15.1.2-22.9.5s-15.4-.1-23.1,0c-.9,0-1.8,0-2.7,0v4.5c0,.2-.5.6-.1,1.1,1.5.8,3.5,2.1,4.5,3.6.8,1.3.3,2.6,2.1,2.8,4.2.4,8.5-.4,12.7-.5,17.7-.4,35.6.5,53.3.5,8.9,0,17.8-.2,26.6-.2.7-.1,1.1-1.5,1.5-2.2,1.2-1.8,2.4-2.9,4.3-4.1v-5.5h-4.4c-9.3,0-18.6,0-27.9-.2-.8,0-1.7,0-2.6,0s-2.2-.2-1.5-1.2c.3-.4,3.2-.2,3.9-.2,5.2-.3,10.2-.1,15.4,0,4.9,0,11.6.8,16.4.3.2,0,.8-.1.8-.4v-12.5c0-.3-.6-1-1.1-.8-.3,0-2.1,1.7-2.8,2.1-3.4,1.8-7.2,1.7-10.7.4-.6-.2-1.5-1-1.9-1-.7,0-2.9,1-4,1.2-1.2.1-4.2,0-4.7-1.4h0Z"/>
  <path class="st7" d="M20.3,111.6l-1.2,13.5c-1.3,1-4.7.1-5.1-1.5-.3-1.3-.1-5,0-6.6.2-5.9.8-12.7,1.5-18.6,0-.6.3-2.7.6-3,9.7-3.5,4.1,7.8,4.5,12.7,4.3-3.6,7.3-8.5,10.9-12.8,1.3-1.2,3.7-.3,3.7,1.5,0,2.6-8.1,10.2-9.8,12.5l10.4,15.1c.6,1.8-2,2.2-3.3,1.6-3.1-1.2-8.7-11-11.2-13.9-.2-.2-.2-.5-.7-.4h0Z"/>
  <path class="st4" d="M148.4,79.1h-18.8l.5-1.5,8.6-15c1-.2,6.1.2,6.6-.3.1-.2-.1-1-.4-1h-4.9c-.7,0,.2-1.7.4-2,.2-.3.5-.6.7-1,.9-1.7,1.5-3.3,3-4.6h3.9l.4,25.4h0Z"/>
  <path class="st7" d="M108.1,111.3c.4,0,.6,0,.9-.2,1.1-.7,3.2-2.6,4.3-3.6.9-.8,3.5-4,4.4-4,1.4,0,2.8,1.4,2.9,2.8s-1.8,3.2-2.8,4c-.9.8-3.6,2.1-4,2.6-.2.2-.3.4-.3.7,2.7,3.2,4.8,7.5,8.9,8.9.5.7-1.1,1.8-1.6,2.1-5.5,2.4-9.2-6-11.8-9.4-1.9-.4-1.6,7.4-1.9,8.6-1,1.1-4.3.2-4.7-1.2s0-5.8.2-7.5c.6-7,2-13.9,2.9-20.8,1-1.5,4.2-.9,4.6.8.2.7,0,1.7,0,2.4-.2,4.6-1.5,9.2-1.9,13.8h0Z"/>
  <path class="st7" d="M181.6,119.7c1,2.1-1.7,4.5-3.6,4.8-2.1.3-3.9-.7-4.6-2.6-.2-.6-.2-2.7-.9-1.6-1,1.6-1.6,3.2-3.6,4-3.5,1.4-6.8-1.4-7.1-4.9-.7-7.5,3.5-17,12.5-14.9,1.6.4,4.5,1.5,4.6,3.4.3,3.1-2,8.8-1.1,11.8.8,2.6,3.1-.4,3.7,0h0ZM174,108.9c-.9-.2-1.4-1.9-2.3-2-3.8-.2-5.9,9.9-4.4,12.4s3.7-1.1,4.4-2.4c.5-1.1,2.7-7.3,2.3-8Z"/>
  <path class="st7" d="M51.2,120.8c.5.3,2.5-.3,2.7-.2.6,2-2,3.8-3.8,3.9-3.1.2-4.2-2.5-4-5.1-.6-.1-.4,0-.5.3-1.5,2.4-2,5-5.7,4.8-6.7-.3-5-10.9-4.2-15.2.2-1.4.5-4.4,2-4.6,6-.8,2.6,7.4,2.3,10.7-.1,1.4-.4,5.8,2.2,4.6,1.8-.8,3.7-7.7,4.3-9.7.4-1.4.4-5,2.2-5.4,1.2-.2,3.2,0,3.5,1.4.3,1.4-.9,5.8-1.1,7.6-.1,1.2-.6,6.3.2,6.9h0Z"/>
  <path class="st4" d="M103.7,51c0,.2,0,.3,0,.5l-1.7,8.1v.5c-.4,1-.5,2.1-.5,3.2,0,.2,0,.3,0,.5-.3.3-.2.6-.2,1,0,.6,0,1.2,0,1.7,0,1.2-.2,2.4-.2,3.7,0,.4,0,.8,0,1.2,0,0-.2.3-.2.6,0,1.7,0,3.4,0,5h-10c0-1,0-2,0-2.9.5,0,.8.3,1-.4.5-2.1.3-4.5.5-6.6.4-3.8,1.1-8,2.1-11.6.8-3,.8-3.7,4.1-3.9,1.6-.1,3.4.4,4.8-.5h.5Z"/>
  <path class="st7" d="M66,108.9c-.2-.2-.7-.3-1-.3-1.9.3-4.3,6.2-4.8,8-.4,1.4-.8,6.1-1.3,6.8-1,1.4-4.7.4-4.7-2.2,0-3.9,1.2-8.4,1.3-12.5,0-1.9-1.2-3.9,1.8-4.1,3.6-.2,3.2,3,2.8,5.6,2.2-3,3.5-6.5,7.9-5.8,6,.9,1.8,11.8,2.4,15.5.3,2.1,2.6.1,2.4,2.2,0,1.3-2.6,2.4-3.8,2.3-7.5-.4-1.3-13.5-3.1-15.6h0Z"/>
  <path class="st4" d="M158.6,52.7c.9,3.5.5,16.3.2,20.4,0,.9-.6,5.6-1.1,6-1,.7-5.3,0-6.7.2-.1,0-.7.2-.8-.1-.1-.4,0-3.6,0-4.3.1-.9.7-2.1.7-3.3.4-4.9-.1-10-.3-14.9,0-1.5,0-3,0-4.5,2.6.5,5.2.6,7.8.5h0Z"/>
  <path class="st7" d="M101.8,103.3c.8.2.4,2.7-.4,3.3-.8.7-4.2.5-5.4.6-.2,3.4-1.3,7.2-1,10.6.2,2.4,1.1,3.7,3.7,3.2.9-.2,2.9-1.9,2.9.2s-3.8,3.5-5.5,3.6c-8.9.2-5.4-12.3-5.2-17.6-1.9,0-3.1.5-2.9-1.8.2-3.2,3.2-1.1,3.9-2.2.7-1.1.9-4.9,1.6-6.4s3.1-1.1,4.1-.3c1.2,1-.7,5.3-.6,6.9,1.2.2,3.7-.3,4.8,0h0Z"/>
  <path class="st7" d="M157.4,103.3h4.9c.3,0,.3,2.7-.5,3.3s-4,.5-5.1.7c-.6.4-1.1,9.8-1,11.1.5,5.3,5,1.5,5.8,2.1,1.4,2.8-3.1,4.4-5.2,4.4-8.5,0-5.2-12.5-4.8-17.6-1.4-.1-3.1.6-3.1-1.3,0-3.6,2.9-1.8,3.8-2.4.5-.3,1.2-7.3,2.6-7.7,1.1-.3,3.3.2,3.6,1.4.4,1.3-1.2,4.6-1.1,6.1h0Z"/>
  <path class="st4" d="M48.4,52.4c-1.7,5.8-3.5,10.4-4.2,16.5-.2,1.8,0,6.1-.6,7.4,0,.2-3.2,2.7-3.4,2.7-.8.1-3.7.3-4.3.1-1-.3-.7-1-.7-1.8.4,0,1,.2,1.3-.2.6-.7.5-4.8.6-6,.5-4.5,2-13.4,4.3-17.2,1.3-2.1,4.7-1,6.9-1.5h0Z"/>
  <path class="st7" d="M81.6,104.1c2,0,4.7.8,5.1,3.1.2.9-.2,2.8-1.2,2.9-1.5.3-1.1-1.5-1.7-2.4-1.1-1.6-4-1.2-4,.8,0,3,6.8,5.4,7,10.1.3,7.1-9.6,8.7-13,4.2-1.4-1.9-.5-5.7,1.7-6.6,2.6-1,.6,2.3.7,3.5.2,3.6,6.1,3.4,6,.8,0-3.2-6.9-6-7.1-10.5-.2-3.7,3.1-5.9,6.5-5.9h0Z"/>
  <path class="st4" d="M159.9,148.5c-.3,3.7.3,7.6.2,11.2v.7s-.2,0-.2.4c0,.9,0,1.7-.2,2.6-.2,0-.3,0-.5,0-.5,0-1.6.2-1.8.2h-9.3c-.4,0-1.5-.4-1.8-.7v-.2c.9.3.9-.8.9-1.4.4-3.7-.8-7.1,1.5-10.4.2-.2.5-.1.5-.2.4,6.4,8.8,2.1,3.9-2,0,0,.3-.2.6-.2,2.1,0,4.2,0,6.2,0Z"/>
  <path class="st4" d="M41.6,148.7c-2.5,1.5-2,5.4,1.3,5.1,1.5-.1,2.5-1.4,2.3-2.9.6-.5,1,0,1.3.5.4.5,1.2,2.2,1.6,2.9.4.9.3,5.1.2,6.4,0,.3,0,.7,0,1,0,.2-.3,1.4-.4,1.5-.1.3-.4.4-.7.5-3.4-.2-7.1.3-10.5,0-2.5-.2-1.7-.5-2.3-2.7v-.5s.2-.3.2-.7c.9,0,.6,0,.8-.6.8-3.2.5-7.4.2-10.7,1.7.1,3.6-.1,5.3,0,.3,0,.5.2.6.2h0Z"/>
  <path class="st4" d="M42.8,127.9v17.9c-2.5-.3-5.7.4-8.1,0v-1.2c.8.1.4-.4.5-.9.5-3.2.5-8.4.3-11.7,0-.8-.2-1.6-.5-2.3.3-.1.8,0,1.3-.3.6-.3,1.2-1,1.8-1.1,1.4-.3,3.1.3,4.5-.5,0,0,.2.2.2.2h0Z"/>
  <path class="st5" d="M115.1,80.8c0,.5-.2.8-.3,1.2-.9,1.9-3.3,5.1-3.9,6.8-.2.6-.2,1.1-.1,1.7-4.7-.8-8.5-.9-9,4.9l-1.9-1.6c.7-3,1.9-6,2.9-9,.2-.3,1.5,0,2.2-.5,1.4-.9.8-6,0-7.4,2.7.9,5.5,1.9,8.2,2.9.7.2,1.3.7,2.1,1h0Z"/>
  <path class="st6" d="M94.1,51.2c-.3,2.3-1.4,4.3-1.9,6.5s-.4,5.1-1.1,7.1c0,0-.3.2-.2.3l.2.2c-.6,2-.5,6.3-.5,8.6,0,1,0,2,0,2.9h10c0-1.7,0-3.4,0-5,0-.3.2-.6.2-.6,1.4.4.9-1,1.7-1,0,.7-.1,2.7,0,3.2-.7,0-1.6,1.2-1.5,1.8,0,0,1.3.9.3,1.7s-6.2-.1-6.7.6c-.2.2-.1.5-.1.8l9-.2c.7.4.7,4,.3,4.7,0,.1-1.4.9-1.6.9-.7,0-1-.4-1.5-.5-.1,0-2.3,0-2.4,0-.6,0-.9.7-1.1.7-.5.2-4.1,0-4.9,0-.9,0-2.2-.7-3.1-.7-.6,0-1.9,1.2-1.8-.5h16c.3,0,.1-.3.2-.5,0-.6.1-3.3-.4-3.4h-15.7c0-.3.2-1.1-.4-1-1.1.2-.1,1.5-1.7,1.7-4,.5-10.4,0-14.7,0-.6,0-1.2.3-1.9.3-1.1,0-2.2-.5-3.4-.3-.5-1.2-1.9-2.1-2.4-3.1-.2-.5-.1-.9-.2-1.1,1.4.7,2.4,3.5,4,3.7h18.3c.6-2.1,1.4-2.4,3.6-2.2,0-5.3.2-10.9,1.1-16.2.3-2,1.2-4.3,1.4-6.3,0-.2,0-.3,0-.5,3,.3,1.3-1,2.3-2.5.2-.3.4-.2.6-.2h0Z"/>
  <path class="st8" d="M142,104.2c.9.1,1.2.2,1.9.2h.2c-.1,1,2.1,1.1,2.2,1.2.1.1,0,1.2,0,1.5,0,.2.5.1.5.2.4.5-.3.5-.4.6-.2.3-.2,1-.7.9-1.4-.3-.6-1.1-.7-1.6-.1-.6-2.2-1.3-2.4-1.1,0,0,0,.4,0,.5,0,0-1.2,0-1.5,0,0,0-.1-.2-.3-.2,0,0-1.3.4-1.4.4-.1.1.3,1,.2,1.3,0,.6-.5,1.8-.2,2.3.2.3,1.4.5,1.4.6.1.2-.3.8-.2,1.1,0,.3,1.6,1.6,2.2,1.1l-.2,1c.9-.5,1.4.5,2.4.2,0,0,.2.2.2.2.3.8-.6.9-.7,1,0,.1.2,1.1,0,1.4,2-.6,1.4-.1,1.7,1.1.5,1.7.3,2.1-.3,3.8,0,0,0,.2,0,.2-.6-.3-.8.5-.9.5-.4,0-1-.3-1.1-.3,0,0,0,.6,0,.8,0,.2-.3.2-.4.3-.2.3,0,1.1-.8.6,0,0,0-.7-.5-.4,0,0,0,.3-.2.5-.7.4-3,.7-3.7.7h-.5c.2-.8-1-.5-1.2-.7-.6-.6.9-.3.7-.7-.6,0-1.5.2-2,0-.7-.2-.2-1.9-1.6-1.4-.2-.4-.2-.6-.2-1h.7l-.7-1.7c0-.2.2-.4.2-.5.7,0,1.1-1.6,1.2-2.2.2-.1.3-.2.5-.2l.2.2c.2.1,1,0,1.1,0,0,0-.2.5-.2.7s.2.3.2.3c0,.2,0,.3,0,.5-.6,0-.7,0-.2.5,0,.5,0,1,0,1.5,0,.2-.8.9.2.7v.2c0,.5,0,1,0,1.4.6-.2,1,.4,1.4.4.3,0,1.3.2,1.7.3,1.5.2,1.2-.5,1.6-1,.3-.3.6-.5,1-.7.1,0,1-.4,1-.7,0-.7-1-1.7-.2-2.8-.2,0-.9,0-1,0-.5-.4,1-.5.5-1-.1,0-.6.3-1,.1s-.3-.8-.6-1.1c-.4-.4-1.5-.8-2.1-1.4-.5-.5-1-2.1-2.2-2.1,0-.1-.5-.7-.5-.7,0-.5,0-.6-.5-.5,0-.1,0-.3,0-.5,1.2-1.2.2-1.4.3-2.3,0-.1.4-1.3.5-1.6,0-.1,0-.4,0-.6.1-.3.4-.3.4-.4.9.7,2-.7,2.2-1.5.3-.1.7-.2,1-.2,1,.8.9-.2,1-.2,0,0,.6,0,.7,0h0ZM143,104.7c-1-.1-1,.4,0,.2v-.2ZM140.1,111.3c-.3-.3-.8.2-.5.5s.8-.2.5-.5Z"/>
  <path class="st7" d="M133,120.1c1,2-1.4,3.9-3.2,4.2-9.2,1.9-4.4-13.5-4.3-18.2.5-1.5,3.7-1.5,4.7-.5.5.6.4,2,.4,2.8-.2,2.6-2,9.7-1,11.8.8,1.6,3.1-.4,3.5-.2h0Z"/>
  <path class="st4" d="M64.8,52.7c-.1.3-.1,1-.2,1.5,0,.2-.2.5-.2.7-.8.5-.9,1.6-1.2,2.4-.1.3-.2.7-.2,1s-.2.3-.2.7c0,.2-.2.4-.2.7l-.2.5c0,0,0,.4,0,.5-.6,1.2-1.1,3.5-1.4,4.8-.4,1.9-.7,4-.8,5.9-.1,0-.3-.2-.5-.2,0-.5,0-.6-.5-.5-.3-1.5-.6-.8-1-1.2-.5-.5,0-.7-1-1,0-.5,0-.6-.5-.5,0-.1-.5-.2-.7-.2-.5,0-1,0-1.5.2.5-3.2,1.5-6.8,2.5-9.8.4-1.1,1.6-4.9,2.5-5.3,1.5-.5,3.8-.2,5.4-.3h0Z"/>
  <path class="st7" d="M138.6,52.9c.3,1.9-1.1,3.2-1.7,4.8l-13.2,23.6c0,0-.5,0-.7-.1-.7-.5-2.1-1.1-1.9-1.9,5.3-8.9,10.9-17.7,16.8-26.2.2-.1.5-.1.7-.1h0Z"/>
  <path class="st6" d="M160.3,57.1c.7,5.2.5,14.3,0,19.6-.1,1.1-.9,2.8-.9,3.7,0,.6.8,2.7.9,3.5h-1c-.3.9,1.5,2.8.5,3.5-.5.4-5.1.5-5.7.3-.8-.3-1.2-2.6-1.5-3.3-.4-.9-1.4-1.7-.8-2.6.2-.4.7-.3.7-.4.4.8,1.1,5.6,1.8,5.6h4.8c.1-1.9-.7-3.8-1.3-5.6h-5.3c0,0,.5-1.3.5-1.4-.1-.6-1.4-.3-1.8-.4-.3,0-.1-.5-.2-.5,1.4-.2,5.7.4,6.7-.2.6-.4,1.1-5.1,1.1-6,.2-4.1.6-16.9-.2-20.4-.1-.5-.4-.8-.5-1.2,2.1.3,1.1,2,1.2,3,0,.7.9,1.8,1,2.6h0Z"/>
  <path class="st6" d="M50.1,162.9l94.1-.5s.3.1.1.5c-.9,1.9-1.9.3-2.7.3-.4,0-.9.2-1.5.2-28.9-.1-57.9-.2-86.8,0-.5,0-1.2-.2-1.4-.2-.7.1-1.3,1.9-1.9-.3h0Z"/>
  <path class="st0" d="M138.6,52.9c.6,0,2.6,1.1,2.1,2l-15.3,27.6c-.8.4-1.6-1.1-1.7-1.2l13.2-23.5c.5-1.7,1.9-2.9,1.7-4.8h0Z"/>
  <path class="st5" d="M122.5,83.7l-8.1,14.4c-.2,0-.5,0-.7,0,0-1.8.3-3.6-.7-5.3l6.4-11.1c.7-.5,2.6,1.5,3.2,1.9h0Z"/>
  <path class="st6" d="M64.6,58.8c-.2.8-.6,1.6-.5,2.4,5.8-.1,11.6-.3,17.5-.3.5,0,.9.2,1.4.2.8,0,4-.8,4.3.4.2,1.1-2.8.8-3.4.8-5.3.2-11.6.4-16.9.2-.7,0-3.1-.6-3.5,0-.5.7-1.1,3.9-1.3,5-.2.9-.2,2.2-.4,3,0,.2-.4.2-.5.3-.2.6.1,2.1.2,2.8-1-.1-.6-1.5-1.7-2.2,0-1.9.4-4,.8-5.9.3-1.4.8-3.7,1.4-4.8.4,0,1.2.1,1.4,0,.3-.2,0-2.1,1-1.9h0Z"/>
  <path class="st0" d="M131.3,52.9c-3.8,8.8-7,17.9-12.5,25.9-.3.2-1.9-.5-2.4-.7,0,0,14.9-25.2,14.9-25.2Z"/>
  <path class="st4" d="M160.3,57.1c1.1-.2.6.4.7,1.2.9,5.8,2,10.4,1.9,16.4,0,1.4,0,2.5-.2,3.9-.3,2.1-.9,4.1-1.5,6.1l-1-.5c0,0,0-.2,0-.2-.2-.9-.9-3-.9-3.5,0-.9.8-2.6.9-3.7.6-5.3.7-14.4,0-19.7h0Z"/>
  <path class="st3" d="M135,98.1c0,0-.4-1.2-.6-1.5-.6-.9-1.4-1.4-1.9-2.2l4.7-5.8c.9.1,4.3,3.6,5,4.5-1,.7-3.5,4.6-4.1,4.9-.3.2-2.9.2-3.1,0h0Z"/>
  <path class="st4" d="M52.6,62.4l-1.3,7.6-5.2,4.1c-.7,0,.8-10.9,1.3-11.7h5.1Z"/>
  <path class="st3" d="M89.4,98.1c-.1,0-2.6,0-2.9,0l-4.5-6.5c-.2-.3,0-.4.1-.6.5-.7,4.4-1.7,5.4-2.3.2,1.2,3.1,4.5,3.2,5.3,0,.2-1.1,4.1-1.2,4.2h0Z"/>
  <path class="st4" d="M87.3,81.5c.5-1,0-1.6,1.4-1.9h14.3c.2.2-.5,2.8.7,2.7,0,.2.1.5-.2.5h-16c0,0-.2,0-.2,0v-1.2h0Z"/>
  <path class="st2" d="M35.2,77.3c-.3-6.2.9-13.1,2.9-19,.3-1,2.2-5.8,2.8-6.1,1.9-1,5.6-.5,7.8-.7,0,.3-.2.5-.2.7-2.2.5-5.6-.5-6.9,1.5-2.3,3.8-3.9,12.7-4.3,17.2-.1,1.2,0,5.3-.6,6-.3.4-.9.2-1.3.2h0Z"/>
  <path class="st2" d="M150.1,38.2l2.4-.2c.2.2-2.7,4,1.7,2.7l-.2,1.7c1,0,1.5-1,2.4,0-.2.4-.4,1-.7,1.3-.6.6-4,2.3-4.8,2.5-1.6.4-3.3-1.7-4.2-3,.7-1.3,1.4-2.9,2.3-4.1.4-.4.8-.5.8-.5h.2c0-.1-.2-.2-.2-.2,0,0,.2-.2.2-.2h0Z"/>
  <path class="st4" d="M148.6,47.5l-5.1,3.6c-1,2.1-2.8.6-4.1-.3l.7-7.9c.7,0,3.7.6,3.9,1.1.3,1-1.7,3.6-1.9,4.9,0,.3,0,1,.3,1,1,.2,2.6-4.4,3.5-4.6.5-.1,3.1,1.8,2.8,2.2h0Z"/>
  <path class="st4" d="M55.3,53.9c-.4.8-.7,1.8-1,2.7-.5,1.5-.8,3.3-1.6,4.6h-4.8c0-1.2,1.6-6.8,2.3-7.3.5-.4,3.3-.3,4.2-.2.5,0,.8.3.8.3Z"/>
  <path class="st4" d="M97.3,83.9c.2.3.2.6.2,1,.1,1.4.4,1.8,1.2,2.9,0,0,0,1.9,0,2-.5.3-.5,1-.7,1.5-2,1.3-4.1,1.9-6.1.4-.4-.3-.4-.9-1-.8,0-.3-.2-.7-.2-1v-1.5c.2-.7,1.2-1.3,1.3-1.7.2-.5,0-.8.1-1.2,0-.5,0-1,.2-1.5.8,0,4.3.2,4.9,0h0ZM96.7,86.9c-1.9-2.4-5.7.7-3.5,3.1,1.8,1.9,5.2-.9,3.5-3.1Z"/>
  <path class="st2" d="M141.3,35.1c.2,0,.5.2.8.2.5,0,1.1-1.2,1.4-.9.5.5-.1,4.4,1.8,2.7.8-.7,1.1-2.7,2.3-1.5,0,.4,0,.9-.1,1.5-.2.9-2.1,4.2-2.8,4.8-.9.7-4.3-.2-4.6-1s.3-4.6.7-5.5c0-.2.3-.2.5-.2h0Z"/>
  <path class="st6" d="M110.2,124.8c-.3,1.3-1.7,2.4-2.9,2.9-.3.1-.9,0-1,0-.3.2-.2,1.9-.2,2.3-.3,1.4-2,1.1-2.7,1.5-.3.2-.8,1.6-1.1,2.1-2.7,3.8-10.7,2.8-10.9-2.4.6,0,.9.2,1.2-.5.9,3.2,4.7,4.8,7.4,2.7,1.6-1.2,2-3.1,2.1-5,.1-2.3-1.2-.9-2.4-.6,0-.1-.5-.5.3-1,1.8-1,2.7,1.3,4.5.5,0,.2,0,.5,0,.7-1.5-.3-.8.8-1,1.8,1.2.5,1-.9,1-1.6.7-.4.4,1.4,1,.7,0,0,0-.8.2-1.1.2-.2.5-.1.5-.2,0-.1,0-.6.2-.8.4-.3,1.6-.3,1.7-.4s.2-1.7.6-1.9c.6-.3,1.2.2,1.4.2h0Z"/>
  <path class="st3" d="M150.1,38.2c.5-.5,2.8-2.9,3.2-3.1.6-.2.9,0,1.3,0,.4,0,2.6-1.3,3.1-.9l-.5,2.2h1c.4.3-1.4,5.1-1.7,5.9-1-1-1.4,0-2.4,0l.2-1.7c-4.4,1.3-1.5-2.5-1.7-2.7l-2.4.2h0Z"/>
  <path class="st3" d="M141.3,35.1c0-.7,0-2.5.6-2.9.3-.3.8-.2,1.2-.5s.9-2,1.6-1.7c0,0,0,.7.6.4s.3-1.7,1.6-1.2v1.7l1.5-.2c.2,1.7-.4,3.3-.7,4.9-1.2-1.3-1.5.8-2.3,1.5-1.9,1.7-1.3-2.2-1.8-2.7-.3-.3-.8.8-1.4.9-.3,0-.6-.2-.8-.2h0Z"/>
  <path class="st2" d="M103.2,51c-1.3.9-3.2.4-4.8.5-3.3.2-3.3.9-4.1,3.9-1,3.7-1.7,7.8-2.1,11.6-.2,2.1,0,4.5-.5,6.6-.2.7-.4.3-1,.4,0-2.2-.1-6.5.5-8.6,0,0,.3-.2.2-.3l-.2-.2c.6-2,.6-4.9,1.1-7.1s1.6-4.3,1.9-6.5c.1,0,.5-.2.5-.2,2.3-.3,6,0,8.6,0h0Z"/>
  <path class="st4" d="M109.8,54.4c-.4,2.3-1.2,4.3-1.7,6.6-1.2.2-2.3.3-3.5.3-.5,0-1,.2-.8-.5,0,0,0-.7,0-1,.3-1.7.9-3.4,1.2-5.1,0-.2.2-.5.2-.5,1.4.5,3.1.1,4.6.2Z"/>
  <path class="st7" d="M128,96.7c4.8-1,4.9,6.8,0,6.3-3.5-.4-3.4-5.6,0-6.3Z"/>
  <path class="st4" d="M106.6,62.4c.4,0,.5.2.7.2-.9,2.6-1.5,5.4-2.4,7.9-.4,1.1-.8,2.4-1.7,3.1,0,0-.4,0-.5-.2-.1-.4,0-2.5,0-3.2,0-.3,0-.7,0-1,0-1.7.2-3.7.5-5.4,0-.2,0-.5,0-.7,0,0,.3-1,.4-1,1,0,2.1,0,3,.3Z"/>
  <path class="st2" d="M158.1,51.4c.1.5.4.8.5,1.2-2.6,0-5.2,0-7.8-.5,0,1.5,0,3,0,4.5.1,4.9.6,10,.3,14.9,0,1.2-.6,2.3-.7,3.3-1-7.7-.4-15.5,0-23.2,2.5.2,5.4-.6,7.8-.2Z"/>
  <path class="st4" d="M92.7,130.6c0-.1,0-.3,0-.5-.2-.8-.2-1.2-.2-2v-.5l2.2.2c0,.2,0,.3,0,.5,0,.6,0,1.2,0,1.7,0,.4,0,.6.2,1,.1.3,0,.5.3.8.2.2.5.1.6.2.9.4,2.1.9,2.9,0,.5,0,.7-.2.7-.7,1-1,.2-2.5.2-3.7,1.3-.3,2.6-1.7,2.4.6,0,1.9-.5,3.8-2.1,5-2.8,2.1-6.6.5-7.4-2.7h0Z"/>
  <path class="st0" d="M114.4,98.1l8.1-14.4c.6.5,2,.7,1.1,2l-7,12.1c-.5.5-1.5.4-2.2.3Z"/>
  <path class="st2" d="M34.7,147.5c3.8.2,7.5-.8,10.6,1.7,1.4,1.1,1.7,1.9,2.3,3.5.1.3.9.6.5,1.6-.3-.7-1.2-2.5-1.6-2.9-.3-.4-.8-1-1.3-.5-.2-2.1-2.2-2-3.7-2.2,0,0-.3-.2-.6-.2-1.7-.1-3.5.1-5.3,0,.3,3.3.6,7.4-.2,10.7-.2.6,0,.6-.8.6,0-4,0-8,0-12v-.2h0Z"/>
  <path class="st2" d="M159.1,147.5c.7.1.6.6.7.7v.2c-2.1,0-4.2-.1-6.2,0-.3,0-.6.2-.6.2-1.8.1-2-.6-3.6,1.1-.2.2-.1.7-.3.9,0,0-.3,0-.5.2-2.2,3.4-1.1,6.8-1.5,10.4,0,.6,0,1.7-.9,1.4,0-.6,0-1.3,0-2,0-4.4-1-9.6,3.8-12.2,1.6-.8,7.4-1.3,9.2-1h0Z"/>
  <path class="st3" d="M50.6,98.1c-1.4-.2-8.1,1.1-7.8-1.3,0-.4,4-3.6,4.3-3.6.3.5,3.8,4.6,3.5,4.9Z"/>
  <path class="st3" d="M84.3,98.1h-3.8c-.3,0-3-3.9-3.3-4.5,1.3-.4,3-2.3,4-.6,0,0,3.1,5.1,3.1,5.1Z"/>
  <path class="st2" d="M71.6,53.6c1.4,0,2.8,0,4.2,0,4.5,0,9.2-.2,13.7,0,.6,0,1.1.2,1.7.2,0,.2,0,.3,0,.5-.9,0-1.7.2-2.6.3-7.3.4-14.7-.2-21.9-.3,0-.7.2-.5.6-.6,1.4-.3,2.9,0,4.2-.1h0Z"/>
  <path class="st4" d="M56.5,100.8l-2.5,1.6c-1.1.5-2.2-.9-3.3-1.1-1.4-.2-3.1,0-4.4.7-.6.3-1.5,1.4-2,1.5-.9,0-2.6-1.8-3.8-2.1-1-.2-1.9,0-2.8-.1-.5,0-.4,0-.4-.5h19.1,0Z"/>
  <path class="st2" d="M59.4,51.9c.9,0,1.8,0,2.7,0h2.9c0,0,.2.1.2.2-.1.2-.4.4-.5.5-1.6.1-3.9-.2-5.4.3-.9.3-2.2,4.2-2.5,5.3-1,3.1-2,6.7-2.5,9.8v.2c-.1,0-.5.2-.5-.2,0-1.7.2-3.4.6-5,.3-1.5.9-3.9,1.4-5.3l.2-.2c0-.1,0-.4,0-.5l.2-.5c.2-.5.5-1.2.7-1.7.4-.8.8-1.6,1.2-2.4.5-.3,0-.4,1.2-.5h0Z"/>
  <path class="st0" d="M115.1,80.8c.6.2,2.3,0,1.9,1.1-.9,1.2-5.1,8.7-6,8.9-.2,0-.3-.2-.3-.2,0-.6,0-1.1.1-1.7.6-1.7,3-4.9,3.9-6.8.2-.4.4-.8.3-1.2h0Z"/>
  <path class="st3" d="M146.9,93.7c-.4.8-1.3.7-2,1-1.4.7-3.4,1.9-3.9,3.4h-.5l-.2-.5c0,0,.3-.7.5-1.1.7-.9,3.2-3.4,2.4-4.4-.1-.2-3.5-2.2-1.9-2.6.6-.1,4.8,3.6,5.5,4.2h0Z"/>
  <path class="st6" d="M45.7,126.7c1.5.1,1.6.5,2.4.7,1.4.2,4.9-.9,6.3-.9,1.1,0,2.3.8,3.4.7,1.6,0,2.8-2.5,4.4-2.6,1.8-.1,1.5.8,2.3,1.6.7.6,1.1.2,1.4,1.1,1.2.2,1.3-.2,1.9-.2.8,0,1.5.3,2.4.2.8-.1,1.4-.7,2.4-.7,1,0,3.4.6,3.3,2-1,0-2.2-1.1-2.8-1.2-.8-.1-3,1-4.4,1-.4,0-2.4-.3-2.7-.5s0-.3-.1-.5c-2-.4-2.9-2.2-3.1-2.2-.7-.1-1.6,1.5-2.6,2-3.2,1.5-4,0-6.2,0-.5,0-1.4.7-2,.8-2.1.5-4.7.5-6.4-1.1h0Z"/>
  <path class="st4" d="M36.2,81.5c2.7-.9,2,0,2.8,1.4.6,1,2.2,2.4,2.5,3.4.3,1.2-1.9.6-2.5.3-.7-.3-3.1-4.6-2.7-5.2Z"/>
  <path class="st2" d="M87.5,78.8h15.7c.5.1.5,2.9.4,3.4-1.2.1-.6-2.5-.7-2.7h-14.3c-1.4.3-.9.9-1.4,2,0-.5,0-1,0-1.5,0-.6.2-.9.2-1.2Z"/>
  <path class="st2" d="M141,98.1c.4-1.5,2.5-2.7,3.9-3.4.7-.3,1.6-.3,2-1,.2.2.9,0,.7.8,0,.2-2.3,3.3-2.5,3.4-.8.5-3,.2-4,.2h0Z"/>
  <path class="st3" d="M138.4,43.1c.2.3-.4,6.5-.7,7-.1.2-2.9.6-2.6-.6.4-1.7,2.3-4.1,2.8-6,0-.4.5-.4.5-.3h0Z"/>
  <path class="st6" d="M110,53.6c1.3.2,0,3.3-.3,4.5,0,.2-.4.2-.5.3-.1.9.7,1.9-.6,2.7-.7.4-2,.2-2.1,1.2-1-.2-2-.3-3-.3,0,0-.4.9-.4,1l-.7-1c1.4.2.4-.6.5-1.1,0-.3.7-.3.7-.4-.1.7.4.5.8.5,1.2,0,2.3,0,3.5-.3.5-2.3,1.3-4.2,1.7-6.6,0,0,.3-.3.2-.5v-.2h0Z"/>
  <path class="st4" d="M77.5,100.8c.5.4-.2.4-.3.5-.8.4-3.5,2.2-3.9,2.2-.2,0-2.6-1.9-3-2.2-.2-.2-.4,0-.3-.6,1,.2,7.3-.2,7.6,0Z"/>
  <path class="st6" d="M161.1,58.3c1.1-.3.6.9.9,1.7,1.5,4.3,1.7,9.3,1.6,13.9,0,.5.2,1-.5.8,0-6-1.1-10.6-1.9-16.4h0Z"/>
  <path class="st6" d="M34.5,160.9c.6,2.2-.2,2.5,2.3,2.7,3.4.2,7.1-.2,10.5,0,.3,0,.6-.2.7-.5,0-.1.3-1.3.4-1.5.5.3.1,2.4,0,2.4h-13.6c-.3,0-1.6-2.9-.4-3.2h0Z"/>
  <path class="st6" d="M107.3,62.7c2,.6.7.7.4,1.3-.4.8-.3,2.2-.7,3.2-.3.7-.9,1.1-1.1,1.6-.4,1.1-.8,4.9-2,5.6-.7.4-.6-.4-.7-.6.9-.7,1.3-2,1.7-3.1.9-2.5,1.6-5.4,2.4-7.9Z"/>
  <path class="st7" d="M141.3,106.7c-.9.9-1.4,1.8-.8,3.1.4.9,3.7,3.6,4.7,4.7-1,.2-1.5-.7-2.4-.2l.2-1c-.6.4-2.1-.8-2.2-1.1,0-.3.4-.9.2-1.1,0,0-1.2-.2-1.4-.6-.3-.5.2-1.6.2-2.3,0-.3-.4-1.2-.2-1.3s1.3-.4,1.4-.4c.2,0,.3.2.3.2h0Z"/>
  <path class="st6" d="M103.7,51.4c0,0,.2.3.2.6,0,1.7-.7,2.3-.7,3.7,0,.8.6,2.5.7,1.2.1-1.1-.6-2.3,1-2.3-.3,1.7-.9,3.4-1.2,5.1-.3-.8-1-.4-1.7-.2,0,0,1.7-8.1,1.7-8.1Z"/>
  <path class="st7" d="M136.9,112.8c1.2,0,1.7,1.5,2.2,2.1.6.6,1.7,1.1,2.1,1.4.2.2.2.9.6,1.1s.9-.2,1-.1c.5.4-1,.6-.5,1,0,0,.7,0,1,0-.7,1.1.3,2.1.2,2.8,0,.3-.9.6-1,.7.5-3.8-3.5-5.3-5.5-8.1-.2-.2,0-.6-.1-.7h0Z"/>
  <path class="st6" d="M34.7,147.8c0,4,0,8,0,12,0,.4-.2.7-.2.7-.7.1-.5-.4-.5-.9,0-.8.2-1.6.2-2.2,0-2.8-.6-5.9-.3-8.8,0-.6,0-.9.8-.8h0Z"/>
  <path class="st6" d="M88.5,125.5c0,0,.6,0,1,.1.4.2.8,1.2,1,1.6-1.1.8-1,2.7.5,2.9,0,.3.2.6.2,1-4.1,0-2.3-2.6-2.7-5.6l-2.7,1.8c-.2.2-.6,0-.7.1-.3-1.1,1-.8,1.3-1.5.3-.6.2-2.5,1.6-1.3.4.3.4.8.5.8h0Z"/>
  <path class="st6" d="M103.7,51h-.5c-2.5,0-6.2-.3-8.6,0,0-.8-.2-.7.6-.7,1.9-.2,3.9-.2,5.7-.2.9,0,1.3-.3,2.3.1,1.2.5.5.7.5.8h0Z"/>
  <path class="st7" d="M142.7,106.7c0,0,0-.4,0-.5.2-.2,2.3.5,2.4,1.1,0,.4-.7,1.2.7,1.6.5.1.5-.6.7-.9,0,0,.7,0,.4-.6,0,0-.4,0-.5-.2-.1-.4.1-1.4,0-1.5-.1,0-2.3-.2-2.2-1.2,2.5.2,4.2,3,2.6,5.1-1.9,2.5-2-1.2-2.4-1.9-.3-.5-1.1-.7-1.6-1h0Z"/>
  <path class="st6" d="M159.1,163.4c0,.7-.3.7-.8.8-2.7.3-8.2.2-11,0-.5,0-.9-.1-1.3-.3-.2-.4.2-.9.2-1,.4.3,1.5.7,1.8.7h9.3c.3,0,1.3-.2,1.8-.2h0Z"/>
  <path class="st4" d="M97.1,128.4c.4,0,.8,0,1.2.2,0,.2,0,.2.2.2l.2.5c0,.2,0,.7,0,1l-.2.5c-.2.1-.3.4-.7.4-.8.2-2-.3-2-1.2,0-.4.3-1.1.5-1.5.1,0,.5-.2.7-.2h0Z"/>
  <path class="st6" d="M75.8,53.6c-.1-.7.4-.5.8-.5,3.8-.2,8.2-.1,12,0,.5,0,1-.2.8.5-4.5-.2-9.2,0-13.7,0Z"/>
  <path class="st6" d="M159.9,148.2s.4-.1.5.2c0,.4,0,.8,0,1.2,0,.3.2.7.2.7v4.2c0,0-.2.4-.2.7,0,1.5.3,3.2-.2,4.5,0-3.6-.5-7.5-.2-11.2v-.2h0Z"/>
  <path class="st7" d="M145.4,114.8c1.8,2.2,2.2,3.4,1.5,6.3,0,.4-.2,1.2-.8,1,.6-1.7.8-2.2.3-3.8-.4-1.2.2-1.7-1.7-1.1.3-.4,0-1.3,0-1.4.1-.2,1-.2.7-1Z"/>
  <path class="st6" d="M84.6,127.7s-.2.3-.6.5c-2.2.8-5.4,1.2-7.5.2,0,0,.3-.2.6-.2,2.5,0,5-.2,7.5-.5h0Z"/>
  <path class="st6" d="M162.8,78.6c1.2.2.5,2.2.3,2.8s-.8,1.4-1,2c-.2.7.3,1.4-.6,1.8-1.2.6-1-.2-1.2-1l1,.5c.6-2,1.2-4,1.5-6.1h0Z"/>
  <path class="st6" d="M123.7,126.7c-1.6,1.5-3.8,2-6,2-.5,0-1,.2-.8-.5.9,0,2.7-.4,3.7-.6.8-.2,1.7-1,2.4-1.1.5,0,.7.2.8.2h0Z"/>
  <path class="st7" d="M146.2,122.3c-1,2.3-5.2,3.5-7.6,2.7.8,0,3-.3,3.7-.7.2-.1.1-.5.2-.5.5-.3.5.4.5.4.8.5.6-.2.8-.6,0,0,.3,0,.4-.3,0-.2,0-.7,0-.8,0,0,.6.3,1.1.3.1,0,.2-.8.9-.5h0Z"/>
  <path class="st6" d="M58.2,52.4c-.4.8-.8,1.6-1.2,2.4-.5,0-.8,0-1.3.3-.9.5-.7,1.2-1.4,1.4.3-.9.5-1.8,1-2.7,1.7.1,1.4-.8,2.2-1.3.2-.2.6,0,.7-.1h0Z"/>
  <path class="st4" d="M64.1,100.8c.1.6-.1.4-.3.6-1.9,1.5-1.9,1.2-3.8,0-.2-.2-.5,0-.3-.6,0,0,4.4,0,4.4,0Z"/>
  <path class="st6" d="M98.8,89.8s.6-.2.5.3c-.2.8-.8.8-1.2,1.1-1.1,2.1-1.6,1.5-3.5,1.7-1,.1-1.2,1.1-2.2-.2-.2-.3-.3-.8-.4-.9-.5-.4-.6.3-.9-1.1.6-.1.6.5,1,.8,2.1,1.5,4.1.9,6.1-.4.2-.4.2-1.1.7-1.5Z"/>
  <path class="st4" d="M134.4,53.6c.3.3-1.6,3.2-1.9,3.6-1.2,1.7-.5-.8-.2-1.6.2-.5,1.2-2.7,2.1-2h0Z"/>
  <path class="st4" d="M137.9,100.8l-.3.5-3.1,1.9c.4-2.6.9-2.6,3.4-2.4h0Z"/>
  <path class="st7" d="M141.5,122.3c-.4.5,0,1.2-1.6,1-.4,0-1.3-.2-1.7-.3-.4,0-.8-.6-1.4-.4,0-.5,0-1,0-1.4,1.3,1.4,2.9,1.6,4.6,1.2h0Z"/>
  <path class="st2" d="M109.3,53.6c.2,0,.3,0,.5,0l.2.2c0,.2-.2.4-.2.5-1.5-.1-3.2.3-4.6-.2v-.2c1.1-.4,2.9-.3,4.2-.2h0Z"/>
  <path class="st7" d="M133.9,122.1c1.5-.5.9,1.2,1.6,1.4.5.2,1.4,0,2,0,.1.4-1.3,0-.7.7.2.2,1.4,0,1.2.7-1.7,0-3.5-1.4-4.1-2.9h0Z"/>
  <path class="st6" d="M105.1,53.9c0-.4-.9-1.4.6-1.5.9,0,.6.6,1,.7s1.2,0,1.7,0c.5,0,1-.2.8.5-1.3,0-3-.2-4.2.2Z"/>
  <path class="st4" d="M90.9,127.9c0,.4,0,1,0,1.5,0,.2,0,.5,0,.7-1.5-.3-1.6-2.1-.5-2.9,0,.2.4,0,.5.7Z"/>
  <path class="st6" d="M66.3,54.4c0-.2-.1-.6.2-.8.7-.5,3.3-.4,4.3-.4.5,0,1-.2.8.5-1.4,0-2.9-.1-4.2.1-.4,0-.7-.1-.6.6-.2,0-.3,0-.5,0Z"/>
  <path class="st6" d="M92.4,128.2c0,.8,0,1.2.2,2-.7,0-.9-.9-1.7-.7,0-.5,0-1,0-1.5l1.5.2h0Z"/>
  <path class="st7" d="M136.6,107.2c0,.3-.5,1.5-.5,1.6,0,1,.9,1.2-.3,2.3,0,0-.2-.3-.2-.6,0-.7,0-3.2,1-3.3Z"/>
  <path class="st6" d="M96.3,128.7c-.1.4-.5,1.1-.5,1.5h-1.2c0-.5,0-1.1,0-1.7.6,0,1.1.2,1.7.2Z"/>
  <path class="st6" d="M92.4,127.7c0-.3,0-.7,0-1,.3,0,2.1.2,2.2.3s0,.7,0,1c0,0-2.2-.2-2.2-.2Z"/>
  <path class="st6" d="M87.3,80c0,.5,0,1,0,1.5v1.2c-.7-.1-1-.4-1-1.1,0-.5,0-1.9,1-1.6Z"/>
  <path class="st6" d="M97.5,84.9c.7,0,1.7,2.5,1.7,2.8,0,.2-.5.1-.5.1-.8-1.2-1.1-1.5-1.2-2.9h0Z"/>
  <path class="st6" d="M92.2,85.4c0,.4,0,.8-.1,1.2-.2.4-1.2,1-1.3,1.7,0,0-.2-.2-.2-.4,0-.6.9-2.4,1.7-2.5Z"/>
  <path class="st6" d="M111,124.8c0,0,.3-.4,1-.1.8.4.8,1.6,1,1.8.5.4,2.8.2,2.9,1.8-1.7-.3-3.9-2.1-4.9-3.4h0Z"/>
  <path class="st4" d="M104.6,127.9v.2c0,.7.2,2.1-1,1.6.1-1-.6-2.1,1-1.8Z"/>
  <path class="st6" d="M59.4,51.9c-.1-.7.3-.5.8-.6.6-.1,2.2-.7,1.9.6-.9,0-1.8,0-2.7,0Z"/>
  <path class="st6" d="M66,55.1c-.4,1-.6,2.5-1.5,3.2.2-1,.3-3.1,1.5-3.2Z"/>
  <path class="st7" d="M139.3,104.7c-.2.8-1.3,2.2-2.2,1.5.7-.9,1.2-1.1,2.2-1.5Z"/>
  <path class="st6" d="M160.1,160.5c.5.8.1,2,.2,2.9h-.7c.2-.9.2-1.7.2-2.6,0-.4.2-.3.2-.4h0Z"/>
  <path class="st6" d="M65.3,52.2c0,.1.5.2.5.4.1.6-.5,1.8-1.2,1.5.1-.5.1-1.1.2-1.5,0-.1.4-.3.5-.5h0Z"/>
  <path class="st7" d="M135.7,116.5c.2,0,.3-.4.6-.4,1.2-.2,1.4.9.6,1.7,0,0-.2,0-.2-.3s.2-.6.2-.7c0,0-.8,0-1.1,0l-.2-.2h0Z"/>
  <path class="st0" d="M77.8,91c.1.6,0,.4-.5.6-.8.2-1.7.5-1.4-.6h2Z"/>
  <path class="st7" d="M135.2,116.7c-.2.6-.5,2.3-1.2,2.2.4-1.2-.1-1.2,1.2-2.2Z"/>
  <path class="st7" d="M133.7,119.4l.7,1.7h-.7c0-.2-.3-.3-.3-.8,0-.5.2-.7.3-.9Z"/>
  <path class="st6" d="M58.9,70.8c.5,0,.5,0,.5.5-.3-.2-.3.3-.5-.5-.2,0-.9.3-1,.2v-1.5c.4.4.6-.3,1,1.2h0Z"/>
  <path class="st6" d="M64.3,54.9c-.2.7-.5,2.5-1.2,2.4.3-.8.4-1.9,1.2-2.4Z"/>
  <path class="st6" d="M63.1,51.9c-.3-.7,1-.6,1.6-.5s.3.4.3.5h-2Z"/>
  <path class="st6" d="M55.8,67.8c.2,1.1-.6.8-1.5.5v-.2c.4-.3,1-.3,1.5-.2h0Z"/>
  <path class="st7" d="M144,104.5c-.8,0-1.1,0-1.9-.2.4-.5,1.5,0,1.9.2Z"/>
  <path class="st6" d="M98.3,128.7c-.4-.2-.8-.3-1.2-.2,0-.5.3-.9.8-.7.4.1.3.8.4,1h0Z"/>
  <path class="st6" d="M62.6,74.9c-1,0-.9-.3-1-1,.8,0,.8.4,1,1Z"/>
  <path class="st6" d="M94.8,131.1c.8-.2.8.3,1,1-.2,0-.4,0-.6-.2-.3-.3-.2-.5-.4-.8Z"/>
  <path class="st7" d="M141.3,104.2c0,0,0,1.1-1,.2.2,0,.5-.4,1-.2Z"/>
  <path class="st2" d="M140.3,97.6l.2.5s-.5.6-.7-.1c-.2-.5.4-.3.5-.4h0Z"/>
  <path class="st6" d="M99.5,131.4c0,.5-.2.7-.7.7.3-.4.4-.4.7-.7Z"/>
  <path class="st6" d="M62.8,58.3c.4.5.4.9-.2.7,0-.4.2-.6.2-.7Z"/>
  <path class="st7" d="M136.9,120.9c-1,.1-.3-.5-.2-.7.3.1.2.5.2.7Z"/>
  <path class="st6" d="M56.5,68.1c.5,0,.6,0,.5.5-.9-.3-.2-.2-.5-.5Z"/>
  <path class="st7" d="M136.9,118.2c0,.4-.2.5-.2.5-.4-.4-.3-.6.2-.5Z"/>
  <path class="st6" d="M98.5,128.9c0,0,.4,0,.5,0,.2.2-.2.5-.2.5l-.2-.5h0Z"/>
  <path class="st6" d="M98.8,130.4s.4.3.2.5c0,0-.4,0-.5,0l.2-.5h0Z"/>
  <path class="st6" d="M62.3,59.8s.4.4.2.5c0,0-.4,0-.5,0l.2-.5h0Z"/>
  <path class="st7" d="M135.9,111.6c.5,0,.6,0,.5.5-.2-.2-.3.4-.5-.5Z"/>
  <path class="st6" d="M90.7,89.8c-.2-.8,0-.8,0-1v1Z"/>
  <path class="st6" d="M56,57.1c0-.2.2-.4.2-.5l-.2.5Z"/>
  <path class="st6" d="M55.8,57.8c0-.2.2-.2.2-.2l-.2.2Z"/>
  <path class="st3" d="M149.8,38.7s0-.2,0-.2h.2c0,.1-.2.2-.2.2Z"/>
  <path class="st4" d="M110,53.9l-.2-.2c0,0,.2,0,.2,0v.2Z"/>
  <path class="st2" d="M93.4,140.2c-.3.4-.6.4-1.1.5-3.2.3-7.2-.1-10.5,0-11.6.4-23.1,2.3-34.7.5l.4-.5c7.7-.1,15.4.3,23.1,0s15.1-.6,22.9-.5h0Z"/>
  <path class="st2" d="M145.2,140.7c.1.8-.4.4-.8.5-6.9,1.2-18.8,0-26.2-.2-.5,0-1,.2-.8-.5,9.3.2,18.6.2,27.9.2h0Z"/>
  <path class="st6" d="M119.8,129.9c0,.3,0,.6-.4.7-.4.1-5.2.1-5.8,0-.7-.1-.8-.9-.5-1,2.2-.3,4.5.5,6.7.2Z"/>
  <path class="st6" d="M79,130.6c-.1-.6.2-.6.7-.7,1.3-.2,2.6.2,3.8-.3v1s-4.5,0-4.5,0Z"/>
  <path class="st1" d="M92.7,130.1c0,.1,0,.4,0,.5-.3.7-.7.5-1.2.5h-.2c0-.3-.2-.6-.2-1,0-.2,0-.5,0-.7.8-.2,1,.7,1.7.7h0Z"/>
  <path class="st2" d="M140.3,154.4c0,.6-.3.7-.8.8-.6.2-2.5.4-3.3.4-4.8.3-9.6,0-14.4,0-11.7-.2-23.5-.9-35.2-1-9,0-17.8.5-26.7-.2.7,0,1.4,0,2.1,0,15.3-1.2,31.4-.1,46.7,0,10.6,0,21.1,0,31.6,0h0Z"/>
  <path class="st2" d="M83.9,62.4c.1.8-.4.4-.8.5-4.9.5-10.3.7-15.2.2-.5,0-1,.3-.8-.5,5.3.1,11.5,0,16.9-.2Z"/>
  <path class="st6" d="M54,91c-1.2.7-1.5-.9-.7-2,1.5-2.2,3.8-3.2,6.4-2.7,3.2.7,11.1,6.1,13.1,8.7.4.5,1.1,1.6,0,1.7-.8,0-2-1.7-2.7-2.2-2.4-2.1-8.8-6.6-12-6.6s-1.9.5-2.7,1.2c-.3.3-1.3,1.8-1.4,1.9h0Z"/>
  <path class="st4" d="M151.8,128.2c0-.2-.1-.7.1-.7,2.5,1.1,5.3.8,7.9.5v17.9h-8.3c.2-.4.1-1.1.2-1.5,1.2-4.2,1.2-9.1.7-13.5,0-.8-.2-1.9-.7-2.6h0Z"/>
  <path class="st2" d="M151.8,144.3c-.3-1.9-.3-3.8-.3-5.8,0-3.4,0-7,.3-10.4.5.6.6,1.8.7,2.6.5,4.5.5,9.3-.7,13.5Z"/>
  <path class="st1" d="M174,108.9c.4.7-1.8,6.9-2.3,8-.7,1.3-2.9,4.9-4.4,2.4s.6-12.6,4.4-12.4c.9,0,1.3,1.8,2.3,2Z"/>
  <path class="st1" d="M101.9,59.5c.7-.2,1.4-.6,1.7.2,0,.2,0,.9,0,1,0,0-.6,0-.7.4-.1.5.9,1.3-.5,1.1l.7,1c0,.2,0,.5,0,.7-.8-.1-.4.4-.5.9-.2,1.5-.9,3.2,0,4.5,0,.3,0,.7,0,1-.8,0-.3,1.3-1.7,1,0-.4,0-.8,0-1.2.4,0,.8-.3.9-.6,0-.3-.6-2.5-.7-3,0-.6,0-1.1,0-1.7,1,.2.3-.7.2-1,0-.2,0-.3,0-.5.1,0,.4,0,.5,0,0,0,.3-2,.3-2.3,0-.6-.3-.8-.3-.8v-.5h0Z"/>
  <path class="st6" d="M101,70c0-1.2.2-2.5.2-3.7.1.6.7,2.7.7,3,0,.4-.6.6-.9.6Z"/>
  <path class="st6" d="M101.9,60s.3.3.3.8-.2,2.2-.3,2.3c0,0-.3,0-.5,0,0-1,0-2.2.5-3.2h0Z"/>
  <path class="st6" d="M101.4,63.7c0,.2.8,1.1-.2,1,0-.4,0-.7.2-1Z"/>
  <path class="st6" d="M153,148.7c4.9,4-3.5,8.3-3.9,2,.2-.2.1-.7.3-.9,1.6-1.7,1.8-.9,3.6-1.1h0ZM150.6,151.2c.2,2.1,3.1,1.4,2.4-.5-.7-1.7-2.6-.9-2.4.5Z"/>
  <path class="st6" d="M45.2,150.9c.1,1.5-.8,2.8-2.3,2.9-3.3.3-3.9-3.6-1.3-5.1,1.5.2,3.5.1,3.7,2.2h0ZM41.3,151.2c.1,1.6,1.8,2,2.6.5.3-.5,0-.6-.1-.7-.5-2.1-2.5-1.1-2.4.2h0Z"/>
  <path class="st2" d="M35,129.7c.3.7.5,1.6.5,2.3.2,3.3.2,8.5-.3,11.7,0,.4.3,1-.5.9,0-.8-.2-1.4-.2-2.1,0-4.2,0-8.4.1-12.6,0-.1.2-.2.4-.2h0Z"/>
  <path class="st4" d="M91.2,65.4l-.2-.2c0-.2.2-.3.2-.3l.2.2c0,.2-.2.3-.2.3Z"/>
  <path class="st7" d="M140.1,111.3c.3.3-.2.8-.5.5s.2-.8.5-.5Z"/>
  <path class="st7" d="M143,104.7v.2c-1,.1-1-.4,0-.2Z"/>
  <path class="st4" d="M152.5,81.5h5.3c.5,1.8,1.4,3.7,1.3,5.6h-4.8c-.7,0-1.4-4.8-1.8-5.6h0Z"/>
  <path class="st6" d="M96.7,86.9c1.8,2.2-1.7,5-3.5,3.1-2.2-2.4,1.5-5.5,3.5-3.1ZM94.8,87.2c-1.6.3-1,2.6.6,2.1,1.1-.3.8-2.4-.6-2.1Z"/>
  <path class="st6" d="M103.2,63.9c-.2,1.7-.4,3.7-.5,5.4-.9-1.3-.2-3.1,0-4.5,0-.5-.3-1,.5-.8h0Z"/>
  <path class="st4" d="M153,150.7c.7,1.9-2.3,2.6-2.4.5l2.4-.5Z"/>
  <path class="st2" d="M153,150.7l-2.4.5c-.1-1.4,1.8-2.2,2.4-.5Z"/>
  <path class="st4" d="M43.8,150.9c0,.1.4.2.1.7-.7,1.5-2.5,1.1-2.6-.5l2.4-.2h0Z"/>
  <path class="st2" d="M43.8,150.9l-2.4.2c0-1.3,1.9-2.4,2.4-.2Z"/>
  <path class="st4" d="M94.8,87.2c1.4-.3,1.7,1.8.6,2.1-1.7.5-2.2-1.8-.6-2.1Z"/>
</svg>