<?xml version="1.0" encoding="UTF-8"?>
<svg id="Layer_1" data-name="Layer 1" xmlns="http://www.w3.org/2000/svg" viewBox="0 0 200 200">
  <defs>
    <style>
      .cls-1 {
        fill: #4f230d;
      }

      .cls-2 {
        fill: #f9d59f;
      }

      .cls-3 {
        fill: #a86b32;
      }

      .cls-4 {
        fill: #fcfcfd;
      }

      .cls-5 {
        fill: #daa566;
      }

      .cls-6 {
        fill: #9d887a;
      }

      .cls-7 {
        fill: #faedd1;
      }

      .cls-8 {
        fill: #452215;
      }

      .cls-9 {
        fill: #f7f4f2;
      }
    </style>
  </defs>
  <path class="cls-8" d="M160.34,50.46c4.36,5.23,5.67,25.12,3.98,31.73-.28,1.09-1.74,5.24-2.37,5.94-1.01,1.12-3.41.8-4.78,1.33-1.18.45-2.25,1.59-3.79,1.59h-5.74c.8.41,2.98,2.86,3.55,2.95.12.02,1.38-1.2,1.97-1.45,3.86-1.67,8.89.77,9.14,5.24.03.56-.37,1.54-.15,1.83.24.33,1.56.34,2.08.62s1.17,1.41,1.66,1.54c.29.07,2.51-.93,3.23-1.08,3.51-.72,8.92-.02,11.51,2.69,3.25,3.41,1.44,7.82,1.2,11.95,8.63,4.47.82,15.01-7.13,12.56-.8-.25-1.68-1.11-2.29-1.15-.71-.05-1.44.73-2.17.99-1.84.66-3.86.55-5.76.23-.13.79.23,1.54.25,2.31.36,9.97-.22,20.01-.5,29.96l10.38.49c2.29.56,12.93.99,14.07,2.55.31.43.46.91-.08,1.19-.93.48-2.74.88-3.8,1.08-11.11,2.11-24.93,2.28-36.33,2.76-33.35,1.41-67.33,1.42-100.68-.24-10.09-.5-21.58-.7-31.45-2.52-2.84-.52-7.21-1.79-1.71-3.28,3-.81,7.97-1.24,11.17-1.54,2.05-.19,4.17-.23,6.23-.25-.17-4.7.31-9.37.25-14.07,0-.7-.25-1.29-.27-1.93-.11-4.93-.22-9.83-.27-14.77-4.02-.93-5.9-4.97-8.4-7.86.11,5.18-2.13,8.02-7.55,7.31-3.96-.52-5.64-3.73-5.77-7.42-.3-8.54,1.5-17.57,2.03-26.11,1.43-6.35,12.67-5.87,13.26.8.29,0,3.1-3.58,3.91-4.16,3.09-2.23,7.74-.89,8.92,2.82.06.17-.1.54.36.36.77-.3,3.16-2.59,4.06-3.28.4-.3,1.87-1.03,1.93-1.13.83-1.21-4.06-1.24-4.41-1.32-3.5-.8-4.83-4.08-6.13-7.06-1.76-4.03-.96-9.84-.41-14.19.51-4.01,2.88-15.29,5.96-17.75,2.03-1.62,8.2-1.5,10.74-.98,1.13.23.86,1.62,1.27,1.71.35.08,4.27.05,4.57-.05.49-.17.8-1.48,1.76-1.67,1.4-.26,6.73-.16,8.31-.02,1.42.13,1.62.55,2.23,1.73,4.87.02,9.75-.06,14.63-.02.58,0,1.11.26,1.69.26.89,0,7.16-.03,7.44-.28.34-.29-.24-1.67,1.73-2.31s8.36-.56,10.33-.05c2.37.61,1.39,2.12,1.65,2.39.16.17,4.09-.1,4.73-.04l7.9-22.96c1.61-1.33,8.7-.01,10.82.63,3.51,1.05,7.04,2.91,9.65,5.49.65-1.26.78-2.52,1.63-3.74.6-.86,3.69-3.5,4.59-3.74.53-.14.89.18,1.29.1.25-.05.48-.43.8-.45.65-.02.72.84.9.93.88.49.96-.8,1.5,1.31.64,2.49.17,4.55-.08,7.05l3.34-2.64c.88-.43,2.59-1.76,3.56-1.48.33.1.53.59.81.65.33.06.77-.28,1.37-.14,1.94.44.69,2.4.93,2.64.31.31.89-.74.74,1.6-.19,3.04-2.58,8.56-5.38,9.89-.2.1-.63-.24-.49.49-.49.17-.78.31-1.22.49-.54.22-1.61.28-1.47.98-.19.05-.66-.06-.73,0-.52-.06-.55-.03-.49.49-.3.08-.51.18-.73.24-1.67.49-2.47,1.1-3.91,2.08-.18.61,2.06.42,2.29.33.55-.19.11-1.42,1.62-1.93,2.37-.79,5.75.13,8.06,0,.11.3.47.26.73.24.16-.01.33,0,.49,0l1.22.49ZM147.63,35.55c.36-1.61.93-3.19.73-4.89l-1.46.24v-1.71c-1.31-.45-.96.97-1.6,1.21s-.58-.39-.63-.42c-.68-.33-1.16,1.33-1.55,1.66s-.9.19-1.22.49c-.52.48-.67,2.23-.61,2.94-.19-.02-.39-.04-.48.18-.36.89-.99,4.7-.7,5.53s3.71,1.76,4.62,1.04c.7-.56,2.57-3.85,2.8-4.77.14-.54.02-1.08.11-1.48ZM131.26,52.91c1.6-4.95,5.52-10.59,6.97-15.4.08-.27.23-.72.09-.95l-18.3-6.39-14.18,44.11c3.51,1.22,7.01,2.56,10.51,3.81.47.17,2.05.91,2.41.7,5.53-7.98,8.66-17.04,12.5-25.88ZM150.08,38.24c-.08.08-.17.16-.24.24-.04.04.04.2,0,.24-.04.04-.49.06-.84.5-.95,1.19-1.6,2.72-2.3,4.07.85,1.21,2.55,3.36,4.17,2.95.85-.22,4.29-1.87,4.83-2.5.3-.35.53-.92.73-1.35.35-.76,2.07-5.54,1.71-5.87h-.98s.49-2.2.49-2.2c-.43-.42-2.64.86-3.08.91-.41.04-.74-.31-1.31-.06-.38.17-2.7,2.56-3.18,3.06ZM148.61,47.52c.28-.41-2.24-2.3-2.76-2.17-.83.21-2.49,4.82-3.46,4.62-.4-.08-.37-.7-.32-1.04.17-1.28,2.21-3.95,1.88-4.92-.2-.57-3.16-1.07-3.88-1.13l-.71,7.91c1.39.87,3.13,2.42,4.15.29l5.11-3.56ZM138.35,43.13c-.08-.09-.62-.07-.54.31-.43,1.9-2.32,4.29-2.77,6.03-.3,1.18,2.48.79,2.61.6.33-.47.92-6.67.7-6.95ZM103.65,50.95c-.01-.15.67-.35-.49-.85-1.01-.43-1.39-.14-2.31-.12-1.75.04-3.78.09-5.65.24-.75.06-.63-.12-.6.73-.03,0-.36.18-.49.24-.15.07-.42-.04-.61.24-1.01,1.5.69,2.75-2.32,2.45-.59-.06-1.09-.22-1.71-.24.14-.74-.37-.47-.84-.49-3.83-.13-8.17-.15-12,0-.47.02-.98-.25-.84.49-1.38,0-2.77-.02-4.15,0,.14-.74-.37-.47-.84-.49-.95-.03-3.63-.17-4.29.37-.37.3-.16.62-.24.85-.08.25-.15.49-.24.73-1.12.08-1.26,2.23-1.47,3.18-.03.15.03.34,0,.49-.92-.17-.68,1.71-1.01,1.92-.26.16-1.06-.04-1.43.03.06-.11-.06-.44,0-.49.06-.06.43.05.49,0,.14-.13-.24-.46-.24-.49,0-.37.2-.52.24-.73.66.13.65-.26.24-.73.08-.32.13-.66.24-.98.71.08,1-1.76,1.22-2.44.08-.24.19-.55.24-.73.76.29,1.34-.92,1.23-1.53-.04-.22-.42-.3-.5-.42-.06-.1-.19-.17-.24-.24-.09-.14.27-.43-.35-.51s-1.88-.18-1.6.51c-.33,0-.65,0-.98,0,.32-1.25-1.32-.68-1.92-.57-.43.09-.91-.1-.77.57-1.21.09-.71.22-1.22.49-.11.06-.47-.04-.72.12-.8.5-.48,1.46-2.21,1.35-.07,0-.37-.26-.83-.26-.89-.01-3.66-.15-4.2.24-.73.52-2.34,6.14-2.3,7.35h4.76c.79-1.37,1.11-3.11,1.59-4.64.78-.15.49-.85,1.43-1.38.43-.25.73-.42,1.26-.33-.22.49-.55,1.23-.73,1.71-.04.11-.16.25-.24.49-.04.13.04.36,0,.49,0,.02-.18.05-.24.24-.47,1.45-1.09,3.83-1.4,5.32-.34,1.65-.58,3.36-.57,5.04.04.29.37.1.5.15.84.31,1.69.65,1.47-.49.18.02.65.14.73.24.25.31-.39.2.49.49s.47.46.98.98v1.47c.09.1.74-.22.98-.24.2.84.15.29.49.49.17.1.38.18.49.24,1.1.72.71,2.06,1.71,2.2.01.08-.01.16,0,.24.11.72-.02,1.05.98.98.06.13.16.27.24.49s-.01.6.23,1.11c.47,1,1.92,1.89,2.39,3.05,1.16-.21,2.29.26,3.37.26.69,0,1.3-.27,1.94-.28,4.29-.02,10.7.56,14.68.02,1.59-.22.62-1.5,1.7-1.72.57-.11.4.64.36.97-.03.28-.21.63-.24,1.22-.91-.34-1.03,1.06-1,1.59.04.73.32.97,1,1.1.08.02.16-.01.24,0-.09,1.66,1.2.5,1.79.5.93,0,2.21.63,3.09.72-.34.46-.18.99-.24,1.47-.79.12-1.72,1.9-1.71,2.54,0,.2.24.35.24.39,0,.16,0,.33,0,.49.01.22-.16.16,0,.98.05.27.17.67.24.98.33,1.37.44.6.91,1.05.13.12.17.61.42.92,1.06,1.32,1.22.38,2.23.24,1.99-.26,2.44.41,3.53-1.72.43-.28,1.02-.29,1.21-1.12.12-.52-.45-.3-.48-.35-.06-.08-.06-1.88,0-1.96.02-.02.5.08.5-.14,0-.26-1.07-2.87-1.73-2.79-.03-.35-.03-.68-.24-.98.18-.05.56-.67,1.12-.74.12-.01,2.28-.02,2.41,0,.47.06.72.6,1.46.5.18-.03,1.55-.78,1.63-.9.41-.64.4-4.27-.32-4.67l-8.99.19c0-.26-.07-.51.11-.75.52-.71,5.69.31,6.74-.59s-.25-1.64-.26-1.74c-.09-.65.74-1.77,1.48-1.81.06.21.46.21.49.24.15.19.04,1.01.74.62,1.22-.68,1.59-4.46,2.01-5.56.21-.53.81-.96,1.08-1.61.39-.94.37-2.33.73-3.18.24-.56,1.63-.66-.41-1.27-.24-.07-.35-.17-.73-.24.06-1.01,1.39-.81,2.05-1.25,1.29-.86.49-1.87.64-2.73.03-.17.41-.15.48-.35.36-1.13,1.61-4.26.26-4.46-.08-.01-.16,0-.24,0-.16-.01-.33,0-.49,0,.14-.74-.37-.47-.84-.49-.51-.03-1.25.12-1.69-.04s-.13-.77-1-.72c-1.53.09-.61,1.1-.62,1.49,0,.08,0,.16,0,.24,0,.03-.21.27-.24.49-1.56.07-.84,1.21-.98,2.33-.16,1.28-.73-.4-.72-1.19.02-1.45.78-1.99.73-3.73-.01-.33-.25-.53-.25-.59-.02-.16.01-.33,0-.49ZM158.14,51.44c-2.43-.39-5.34.46-7.82.24-.37,7.72-1,15.53,0,23.22-.07.63-.13,3.83-.02,4.27.08.3.63.06.75.13.02.01-.1.43.16.49.38.09,1.69-.21,1.8.37.01.07-.45,1.28-.49,1.34-.02.03-.45.03-.71.38-.65.92.41,1.63.8,2.58.29.71.75,3.09,1.54,3.35.65.22,5.18.08,5.71-.32,1.05-.8-.77-2.67-.49-3.67l.98.12c.02.08-.02.17,0,.24.19.89,0,1.63,1.16,1.04.89-.45.38-1.14.6-1.85.18-.6.72-1.24.97-1.96s.94-2.68-.29-2.85c.19-1.39.23-2.51.24-3.91.74.14.47-.37.49-.84.15-4.58-.07-9.61-1.55-13.86-.27-.76.24-1.93-.9-1.67-.12-.82.42-1.41-.73-1.22-.1-.8-.9-1.94-.97-2.59-.12-1.04.83-2.7-1.22-3.03ZM48.43,52.42c.06-.21.33-.41.24-.73-2.15.13-5.81-.32-7.75.66-.61.31-2.42,5.08-2.76,6.06-2.02,5.85-3.19,12.75-2.93,18.95.03.82-.27,1.52.72,1.84.63.21,3.53,0,4.28-.14.22-.04,3.33-2.49,3.42-2.69.6-1.31.42-5.64.62-7.45.67-6.14,2.46-10.76,4.15-16.5ZM123.69,81.26c.09.06.86,1.59,1.68,1.19l15.32-27.59c.47-.86-1.46-1.93-2.1-1.96-.25-.01-.49,0-.72.12-5.92,8.5-11.53,17.31-16.84,26.21-.11.78,1.28,1.4,1.95,1.88.24.17.63.09.71.14ZM134.44,53.64c-.82-.76-1.85,1.41-2.07,1.96-.32.8-1.09,3.33.16,1.63.3-.41,2.21-3.31,1.91-3.58ZM148.36,79.06l-.37-25.42h-3.91c-1.51,1.26-2.11,2.89-3.01,4.57-.2.38-.56.63-.74.97-.2.37-1.12,2.04-.4,2.04h4.89c.25,0,.51.8.37.98-.41.49-5.57.09-6.55.3l-8.56,15.03-.53,1.54h18.81ZM52.58,62.44h-5.13c-.52.87-2.02,11.75-1.34,11.74l5.2-4.08,1.27-7.65ZM77.5,98.13c.07-.39-.04-.56-.23-.87-5.94-9.34-13.8-17.38-20.65-26.03-.31-.31-.77-.71-1.23-.71-.6,0-4.67,3.17-5.48,3.79-3.1,2.4-6.03,5.08-9.05,7.58,4.03,5.65,8.52,10.99,13.06,16.23h23.58ZM115.13,80.77c-.73-.27-1.42-.74-2.07-.99-2.7-1.03-5.45-2.01-8.19-2.92.74,1.48,1.4,6.53-.02,7.44-.68.44-1.99.26-2.21.53-.93,2.99-2.17,5.95-2.88,8.97l1.93,1.63c.54-5.84,4.37-5.72,9.04-4.89.03,0,.11.26.32.21.93-.2,5.05-7.75,5.99-8.95.35-.98-1.36-.85-1.91-1.05ZM36.23,81.53c-.39.57,2.04,4.82,2.74,5.16.63.32,2.87.93,2.52-.31-.29-1.01-1.88-2.47-2.45-3.42-.83-1.41-.15-2.31-2.81-1.43ZM122.46,83.71c-.54-.45-2.45-2.42-3.15-1.93l-6.37,11.09c.99,1.63.69,3.44.72,5.26.24.01.49-.01.73,0,.72.03,1.69.18,2.21-.35l6.96-12.11c.93-1.27-.53-1.48-1.11-1.96ZM89.45,98.11c.17-.15,1.27-4.03,1.25-4.25-.08-.72-2.99-4.11-3.19-5.26-.97.57-4.84,1.62-5.38,2.31-.17.22-.31.33-.11.61l4.53,6.49c.3.18,2.79.2,2.91.1ZM134.96,98.1c.2.13,2.8.08,3.15-.09.66-.32,3.17-4.26,4.13-4.92-.68-.91-4.09-4.36-5-4.5l-4.74,5.78c.51.85,1.35,1.3,1.9,2.21.21.35.48,1.46.56,1.52ZM146.9,93.73c-.72-.61-4.92-4.28-5.49-4.16-1.68.35,1.72,2.38,1.85,2.56.79,1.04-1.76,3.58-2.43,4.45-.25.32-.46.98-.53,1.06-.04.05-.69-.18-.49.36.26.68.68.13.73.13.16,0,.33,0,.49,0,1.07-.02,3.24.22,4.04-.23.2-.11,2.46-3.16,2.51-3.37.22-.85-.49-.63-.69-.8ZM77.75,91.04h-1.95c-.24,1.09.58.79,1.43.56.43-.12.63.08.53-.56ZM84.35,98.13l-3.07-5.12c-1.06-1.71-2.76.18-4.02.6.35.6,3.02,4.52,3.3,4.52h3.79ZM50.62,98.13c.29-.25-3.26-4.37-3.55-4.89-.27-.07-4.25,3.19-4.29,3.55-.24,2.43,6.44,1.18,7.84,1.34ZM108.05,111.33c.41-4.59,1.73-9.2,1.95-13.81.03-.7.1-1.73-.05-2.39-.39-1.75-3.64-2.29-4.64-.81-.85,6.93-2.31,13.85-2.89,20.81-.14,1.68-.59,6.16-.19,7.53s3.67,2.26,4.72,1.15c.36-1.17.07-9.01,1.94-8.56,2.64,3.4,6.33,11.82,11.83,9.39.56-.25,2.09-1.34,1.63-2.06-4.17-1.46-6.29-5.67-8.95-8.92-.04-.36.05-.47.26-.72.44-.51,3.08-1.79,4.02-2.58,1.01-.84,2.92-2.6,2.81-4s-1.45-2.74-2.87-2.8c-.98-.04-3.51,3.15-4.45,3.99-1.05.95-3.17,2.83-4.27,3.55-.3.2-.49.3-.87.23ZM20.33,111.58c.45-.11.47.15.69.41,2.52,2.95,8.15,12.71,11.22,13.95,1.4.57,3.98.16,3.35-1.63l-10.38-15.05c1.72-2.3,9.79-9.84,9.79-12.46,0-1.74-2.4-2.72-3.69-1.48-3.57,4.31-6.54,9.24-10.86,12.85-.39-4.84,5.23-16.13-4.46-12.65-.27.29-.49,2.4-.55,2.99-.64,5.91-1.28,12.67-1.48,18.57-.05,1.56-.24,5.22.06,6.56.36,1.62,3.82,2.49,5.1,1.48l1.2-13.53ZM101.82,103.26c-1.02-.32-3.55.23-4.76,0-.16-1.51,1.79-5.87.56-6.86-1.01-.81-3.47-1.22-4.11.26s-.92,5.39-1.57,6.44c-.7,1.14-3.78-.91-3.95,2.23-.12,2.36,1.07,1.81,2.95,1.84-.17,5.36-3.65,17.8,5.25,17.62,1.68-.03,5.54-1.56,5.52-3.57s-1.95-.34-2.89-.18c-2.61.45-3.49-.83-3.73-3.24-.33-3.42.74-7.21.98-10.63,1.21-.12,4.52.03,5.37-.62.75-.57,1.12-3.06.37-3.3ZM157.41,103.26c-.04-1.56,1.51-4.79,1.12-6.12-.35-1.18-2.58-1.74-3.64-1.41-1.42.43-2.13,7.41-2.65,7.74-.93.6-3.77-1.2-3.79,2.4-.01,1.94,1.72,1.17,3.09,1.3-.46,5.13-3.73,17.58,4.76,17.62,2.13.01,6.59-1.57,5.23-4.4-.82-.56-5.31,3.16-5.84-2.1-.13-1.29.38-10.7,1.01-11.09,1.13-.19,4.29-.04,5.09-.65s.82-3.29.5-3.29h-4.89ZM128.02,96.72c-3.43.71-3.54,5.89-.03,6.28,4.92.54,4.87-7.28.03-6.28ZM56.49,100.82h-19.06c-.03.57-.08.43.36.49.92.12,1.84-.14,2.82.11,1.18.3,2.89,2.18,3.77,2.09.46-.05,1.35-1.13,1.96-1.48,1.25-.72,2.96-.97,4.39-.71,1.07.19,2.18,1.62,3.3,1.08l2.45-1.58ZM64.07,100.82h-4.4c-.13.59.1.4.32.55,1.83,1.27,1.88,1.5,3.77.01.2-.16.45,0,.31-.56ZM77.5,100.82c-.3-.23-6.58.17-7.57,0-.14.57.11.4.31.56.37.28,2.8,2.16,2.98,2.15.43-.02,3.11-1.79,3.93-2.2.17-.09.84-.14.35-.51ZM137.86,100.82c-2.55-.19-3.07-.19-3.42,2.44l3.1-1.9.32-.54ZM81.58,104.09c-3.4.04-6.69,2.22-6.53,5.9.19,4.52,7.01,7.33,7.09,10.54.06,2.6-5.82,2.77-6.03-.82-.07-1.2,1.86-4.54-.69-3.5-2.24.91-3.1,4.76-1.7,6.62,3.42,4.52,13.35,2.83,13.01-4.22-.22-4.66-7.05-7.05-7.03-10.09.02-2.09,2.98-2.43,4.03-.84.62.94.24,2.7,1.71,2.45,1-.17,1.41-2.08,1.24-2.95-.44-2.28-3.07-3.1-5.11-3.07ZM142.01,104.24c-.13-.02-.7-.02-.73,0-.44-.17-.72.17-.98.24-.31.09-.7.13-.98.24-1.02.41-1.48.56-2.2,1.47-.07.09-.33.11-.44.41-.08.21,0,.45-.05.57-1.05.13-1.02,2.58-.99,3.32.01.33.24.51.25.59.03.15-.03.35,0,.49.22.94.31.3.49.49.03.03.42.62.49.73.05.08-.03.47.14.71,1.98,2.8,5.96,4.29,5.48,8.09-.33.26-.67.39-.98.73-1.77.33-3.37.16-4.64-1.22,0-.08,0-.16,0-.24-.01-.27.08-.61-.24-.73.04-.48-.05-.99,0-1.47,0-.03.21-.06.24-.49.01-.16,0-.33,0-.49.86-.8.68-1.85-.57-1.67-.36.05-.49.37-.65.45s-.3.1-.49.24c-1.32,1.02-.82.97-1.22,2.2-.04.11-.19.25-.24.49-.04.18-.28.33-.28.86,0,.5.24.68.28.85.07.38.09.59.24.98.61,1.52,2.44,2.93,4.15,2.93.16,0,.33,0,.49,0,2.37.83,6.58-.34,7.57-2.69.03-.07-.03-.17,0-.24.6.15.71-.64.81-1.02.7-2.9.26-4.07-1.54-6.31-.07-.09-.17-.16-.24-.24-.99-1.14-4.32-3.78-4.7-4.71-.56-1.36-.14-2.17.79-3.12.3-.01,1.39.05,1.47,0,.52.29,1.24.46,1.58.99.45.7.56,4.44,2.45,1.94,1.61-2.14-.1-4.94-2.56-5.13-.08,0-.16,0-.24,0-.45-.33-1.55-.74-1.95-.24ZM181.58,119.65c-.64-.44-2.94,2.53-3.74-.05-.92-3,1.33-8.72,1.07-11.81-.16-1.92-3.03-3.06-4.65-3.43-8.95-2.05-13.16,7.4-12.48,14.93.32,3.5,3.62,6.27,7.1,4.88,1.97-.79,2.59-2.39,3.61-3.96.7-1.09.69,1.02.91,1.64.7,1.98,2.49,2.97,4.58,2.63,1.9-.31,4.61-2.74,3.59-4.82ZM65.96,108.95c1.78,2.09-4.33,15.18,3.12,15.59,1.24.07,3.71-1,3.8-2.33.14-2.09-2.12-.08-2.45-2.22-.57-3.74,3.66-14.61-2.36-15.48-4.45-.65-5.73,2.88-7.92,5.85.4-2.67.82-5.79-2.82-5.64-3.06.12-1.8,2.1-1.81,4.05-.03,4.07-1.25,8.6-1.26,12.46,0,2.63,3.66,3.66,4.68,2.22.5-.71.9-5.4,1.28-6.79.48-1.76,2.83-7.64,4.75-7.97.28-.05.81.06.99.27ZM51.15,120.83c-.89-.57-.38-5.71-.25-6.9.2-1.78,1.45-6.17,1.14-7.55-.32-1.47-2.26-1.63-3.49-1.39-1.76.34-1.81,3.94-2.2,5.37-.54,2-2.46,8.82-4.28,9.65-2.58,1.18-2.29-3.27-2.19-4.64.25-3.27,3.7-11.49-2.34-10.65-1.51.21-1.74,3.21-1.99,4.61-.78,4.34-2.54,14.93,4.2,15.22,3.69.16,4.16-2.47,5.69-4.83.15-.24-.02-.44.55-.31-.22,2.67.95,5.31,4.02,5.14,1.77-.1,4.35-1.92,3.79-3.92-.1-.11-2.12.55-2.65.21ZM132.97,120.13c-.37-.26-2.74,1.78-3.48.19-.97-2.07.87-9.19,1.04-11.8.05-.8.16-2.2-.37-2.8-.92-1.07-4.16-1.05-4.65.47-.19,4.69-4.99,20.07,4.26,18.19,1.8-.37,4.17-2.22,3.21-4.24ZM88.5,125.51s-.06-.51-.49-.85c-1.44-1.14-1.28.7-1.59,1.33-.35.72-1.63.4-1.34,1.47-.17.09-.31.16-.49.24-2.5.29-4.95.45-7.47.48-.32,0-.56.25-.59.25-.16,0-.33.01-.49,0,.13-1.4-2.32-1.95-3.31-1.96-1.05-.02-1.62.6-2.45.72-.93.14-1.65-.17-2.4-.16-.59.01-.65.41-1.86.17-.31-.97-.74-.5-1.45-1.12-.85-.74-.49-1.71-2.34-1.59-1.63.1-2.81,2.53-4.43,2.63-1.06.07-2.25-.73-3.4-.68-1.38.07-4.88,1.18-6.31.93-.78-.13-.82-.56-2.36-.66-.16-.01-.33,0-.49,0-.05,0-.33-.4-.81-.23-.69.25-.62,1.79-1.64,1.45-.01-.07-.2-.16-.24-.24-.15-.3.04-.7-.61-.74-.31-.02-3.71.45-4.1.56-.47.13-1.16.8-1.66,1.03-.81.36-1.87,0-2.38,1.29.24,4.51-.49,9.69-.05,14.12.08.82.1,1.7.97,1.84,0,.57,0,1.14,0,1.71,0,.08,0,.16,0,.24-.66,0-.68.29-.75.84-.32,2.88.23,5.97.26,8.81,0,.63-.26,1.37-.25,2.21,0,.47-.23.99.49.85,0,.16,0,.33,0,.49-1.2.26.04,3.18.37,3.18h13.56c.13,0,.51-2.13,0-2.44.04-.3-.02-.66,0-.98.74.14.47-.37.49-.84.03-.99-.35-3.66.61-4.04.51-.2.34.33.36.6.09,1.21-.27,2.69.24,3.79-.04.91-.19,1.9,0,2.69.53,2.15,1.2.43,1.86.3.26-.05.95.21,1.43.2,28.91-.23,57.85-.12,86.77,0,.55,0,1.09-.24,1.47-.23.77.03,1.8,1.6,2.69-.3.16-.35-.14-.44-.14-.47,0-.33,0-.65,0-.98.77-.14,1.06-.97,1.95-.73.01.64.04,1.31,0,1.96,0,.08,0,.16,0,.24,0,.1-.48.58-.23.96.43.17.86.24,1.31.27,2.78.2,8.33.3,11.02,0,.55-.06.85-.08.84-.75.16-.01.33,0,.49,0,.24,0,.49.01.73,0-.11-.95.27-2.11-.24-2.93,0-.24,0-.49,0-.73.5-1.36.18-3.07.24-4.53.01-.32.25-.63.25-.72v-4.16c0-.06-.21-.44-.25-.73-.06-.38.1-.85.02-1.19-.06-.27-.47-.13-.49-.16-.09-.1-.06-.62-.73-.73-.04-.62.37-1.22.73-1.71.02-.02.33.09.48-.18.48-.81-.04-11.63,0-13.65.02-1.39.76-2.96-.23-4.33-1.14-1.57-1.66-.38-2.83-.2-.6.1-2.59.12-3.16,0-1.02-.2-.77-1.13-.86-1.22-.46-.41-1.49,1.14-2.28,1-.06-.01-.88-.86-.9-.93-.28-1.05.62-1.52-1.59-1.48-1.58.02-.86.61-1.15,1.12-.04.07-1.27.82-1.44.89-2.36,1-6.12,2.04-8.6,1.32-.35-.1-.6-.6-.97-.74-2.18-.83-3.56-1-5.86-.62-.7.11-1.55.63-2.28.65-.89.03-2.52-.6-3.52-.71-.3-.03-.66,0-.98,0-.04,0-.24-.31-.78-.21-.66.12-1.54.9-2.38,1.08-.95.2-2.78.54-3.68.6-.28.02-.72.04-.98,0-.07-1.57-2.39-1.35-2.88-1.77-.28-.24-.25-1.4-1.04-1.79-.65-.31-.87.13-.97.13-.24,0-.49,0-.73,0-.18,0-.87-.53-1.43-.2-.33.2-.49,1.81-.56,1.88-.11.11-1.28.05-1.69.4-.33.28-.17.74-.24.85-.01.02-.34-.06-.5.16-.21.29-.19,1.01-.24,1.06-.56.62-.31-1.13-.97-.73,0-.08,0-.16,0-.24,0-.24.01-.49,0-.73-1.8.78-2.74-1.55-4.53-.5-.83.48-.35.86-.35.99-.06,1.2.79,2.71-.24,3.67-.38.35-.39.36-.73.73-.82.89-2.01.44-2.93,0-.14-.7-.14-1.16-.98-.98-.15-.39-.2-.55-.24-.98h1.22c.07.9,1.2,1.35,2.03,1.18.36-.07.47-.35.65-.45.1-.05.43.06.49,0,.16-.17-.24-.46-.24-.49-.04-.24-.04-.74,0-.98,0-.03.4-.33.24-.49-.06-.06-.39.05-.49,0-.14-.08-.18-.08-.24-.24-.08-.2.07-.84-.37-.98-.52-.16-.87.22-.85.73-.28.02-.61.24-.73.24-.58,0-1.12-.31-1.71-.24,0-.16.01-.33,0-.49-.02-.25.07-.88-.01-.96-.08-.08-1.86-.27-2.19-.26-.01.32,0,.65,0,.98,0,.16,0,.33,0,.49l-1.47-.24c-.11-.65-.41-.59-.49-.73-.22-.43-.58-1.34-.99-1.59-.36-.22-.87-.07-.97-.13Z"/>
  <path class="cls-5" d="M149.83,49.24v.49c-1.51.51-1.07,1.73-1.62,1.93-.24.08-2.48.27-2.29-.33,1.44-.98,2.24-1.59,3.91-2.08Z"/>
  <path class="cls-5" d="M153.25,47.53c.16.64-.93.83-1.47.98-.15-.7.93-.76,1.47-.98Z"/>
  <path class="cls-5" d="M159.12,49.97c.08,0,.26-.38.92-.08.45.21.25.51.3.57l-1.22-.49Z"/>
  <path class="cls-5" d="M157.89,49.73c.2-.01.86-.75.73.24-.26.02-.62.05-.73-.24Z"/>
  <path class="cls-5" d="M151.05,48.51c-.2.18.45.23-.49.49-.06-.52-.03-.55.49-.49Z"/>
  <path class="cls-5" d="M154.96,46.55c.12.75-.19.39-.49.49-.14-.73.29-.39.49-.49Z"/>
  <path class="cls-3" d="M110.98,124.78c1.01,1.34,3.22,3.14,4.89,3.42.26.04.69.02.98,0-.14.74.37.47.84.49,2.21.09,4.38-.41,6-1.95.31,0,.68-.03.98,0,.46,1.43,3.48,1.55,4.7,1.4,1.07-.13,3.29-1.23,3.96-1.16.43.04,1.34.81,1.92,1.02,3.54,1.31,7.29,1.38,10.73-.36.74-.38,2.53-2.03,2.8-2.1.48-.13,1.06.51,1.06.83v12.47c0,.27-.6.35-.84.38-4.82.57-11.43-.19-16.37-.27-5.19-.09-10.22-.29-15.39.02-.77.05-3.63-.23-3.94.22-.72,1.05.63,1.22,1.48,1.25s1.76-.03,2.57-.01c-.14.74.37.47.84.49,7.37.34,19.22,1.48,26.17.25.46-.08.98.28.84-.49,1.46,0,2.94,0,4.4,0v5.5c-1.91,1.13-3.05,2.22-4.26,4.05-.43.65-.76,2.04-1.48,2.18-8.89.06-17.76.27-26.65.25-17.63-.04-35.54-.89-53.27-.51-4.18.09-8.52.93-12.71.51-1.78-.18-1.29-1.5-2.1-2.79-.95-1.5-2.94-2.78-4.49-3.58-.35-.55.13-.91.13-1.1v-4.52c.89,0,1.79.01,2.69,0l-.36.49c11.54,1.84,23.13-.08,34.69-.5,3.31-.12,7.35.33,10.53.02.45-.04.81-.1,1.09-.5,2.24.05,4.65.2,6.95.26.48.01,3.15-.09,3.31-.26.02-.03.02-.7,0-.73-.32-.4-4.64-.2-5.51-.24-12.34-.55-24.79-.04-37.12-.02-5.42,0-10.85-.11-16.25.24-.29-1.57.05-3.15,0-4.76-.07-2.22-.54-4.6-.27-6.85.08-.64.28-.74.75-1.08.16,0,.33-.01.49,0,1.69,1.6,4.22,1.66,6.37,1.11.67-.17,1.52-.82,2.05-.84,2.16-.07,2.99,1.56,6.16.01.98-.48,1.92-2.13,2.62-2.02.19.03,1.1,1.83,3.07,2.22.05.16-.13.35.14.51s2.26.48,2.67.48c1.41.02,3.62-1.11,4.38-1,.64.09,1.86,1.14,2.83,1.23.16.01.33,0,.49,0,2.11.95,5.32.59,7.48-.23.39-.15.54-.48.59-.5.18-.08.32-.16.49-.24.13-.07.52.03.71-.14l2.71-1.82c.38,3.03-1.44,5.63,2.69,5.62.08,0,.16,0,.24,0,.2,5.21,8.15,6.18,10.86,2.43.35-.48.78-1.85,1.12-2.06.69-.42,2.41-.02,2.68-1.48.07-.38-.03-2.16.25-2.32.1-.06.71.06,1.03-.06,1.21-.44,2.59-1.56,2.88-2.88.24,0,.49,0,.73,0ZM78.97,130.64h4.52v-.97c-1.25.48-2.6.05-3.85.3-.45.09-.8.11-.67.67ZM119.78,129.91c-2.22.29-4.52-.51-6.72-.25-.3.04-.25.84.49.98.6.11,5.37.1,5.82-.04.32-.1.47-.35.41-.69Z"/>
  <path class="cls-7" d="M116.36,78.09c-3.51-1.24-7-2.59-10.51-3.81l14.18-44.11,18.3,6.39c.15.23,0,.68-.09.95-1.45,4.81-5.37,10.44-6.97,15.4l-14.91,25.18Z"/>
  <path class="cls-3" d="M59.91,154.35c8.95.72,17.77.2,26.74.23,11.75.05,23.47.76,35.21.98,4.77.09,9.6.3,14.4,0,.77-.05,2.63-.2,3.26-.4.45-.14.8-.25.77-.82,1.3,0,2.61,0,3.91,0-.02,2.36.03,4.73,0,7.09,0,.33,0,.65,0,.98l-94.07.49c-.19-.78-.04-1.78,0-2.69,0-.04.24-.28.25-.59.07-1.67-.07-3.36-.01-5.03,2.16-.01,4.32.02,6.49.01.98,0,1.89-.35,3.04-.25Z"/>
  <path class="cls-3" d="M66.75,54.37c7.23,0,14.62.62,21.88.26.87-.04,1.68-.33,2.55-.26-.19,2.01-1.04,4.26-1.39,6.31-.9,5.28-1.08,10.83-1.05,16.18-2.16-.18-2.95.14-3.58,2.21h-18.3c-1.57-.21-2.66-2.97-4.02-3.68-.08-.21-.19-.35-.24-.49-.22-.53-.2-.95-.98-.98-.01-.08.01-.17,0-.24-.13-.69-.39-2.15-.24-2.77.05-.18.43-.15.48-.34.19-.8.16-2.07.36-3.02.23-1.09.78-4.26,1.33-4.97.38-.5,2.73.08,3.45.09-.14.76.38.45.85.49,4.9.41,10.27.24,15.16-.25.46-.05.99.29.85-.48.6-.02,3.65.24,3.42-.85-.25-1.2-3.49-.39-4.3-.4-.49,0-.94-.23-1.43-.23-5.85-.08-11.66.14-17.48.26-.13-.88.32-1.63.49-2.44.03-.15-.03-.34,0-.49.84-.69,1.09-2.15,1.47-3.18.09-.25.16-.49.24-.73.16,0,.33,0,.49,0Z"/>
  <path class="cls-2" d="M77.5,98.13h-23.58c-4.55-5.24-9.03-10.58-13.06-16.23,3.02-2.5,5.95-5.18,9.05-7.58.8-.62,4.88-3.79,5.48-3.79.46,0,.92.4,1.23.71,6.84,8.66,14.71,16.69,20.65,26.03.19.3.31.48.23.87ZM54,90.99c.1-.06,1.07-1.6,1.38-1.91.76-.76,1.57-1.23,2.69-1.24,3.12,0,9.53,4.57,11.97,6.63.67.57,1.92,2.28,2.69,2.21,1.14-.1.42-1.2,0-1.73-1.97-2.59-9.91-8.03-13.06-8.69-2.62-.55-4.88.56-6.37,2.7-.77,1.11-.53,2.73.69,2.03Z"/>
  <path class="cls-1" d="M124.66,126.73c1,.12,2.63.74,3.52.71.73-.02,1.58-.54,2.28-.65,2.3-.37,3.68-.2,5.86.62.38.14.62.64.97.74,2.48.72,6.24-.31,8.6-1.32.17-.07,1.4-.82,1.44-.89.29-.51-.43-1.09,1.15-1.12,2.21-.03,1.31.44,1.59,1.48.02.06.83.92.9.93.79.14,1.82-1.41,2.28-1,.09.08-.16,1.02.86,1.22.57.11,2.56.09,3.16,0,1.17-.19,1.7-1.37,2.83.2.99,1.37.25,2.94.23,4.33-.04,2.02.48,12.84,0,13.65-.16.27-.47.16-.48.18v-17.85c-2.63.27-5.45.64-7.94-.49-.24,0-.11.5-.13.74-.25,3.35-.19,7.02-.26,10.38-.04,1.93,0,3.85.26,5.76-.11.38-.06,1.02-.24,1.47h8.31c-.36.5-.78,1.09-.73,1.71-1.78-.29-7.6.13-9.17.97-4.82,2.58-3.86,7.78-3.78,12.23-.9-.24-1.18.6-1.95.73.03-2.36-.02-4.73,0-7.09-1.3,0-2.61.01-3.91,0-10.55-.08-21.1.1-31.65.01-15.3-.13-31.35-1.25-46.66-.01-.69.06-1.39-.03-2.08,0-1.15-.09-2.07.25-3.04.25-2.16,0-4.33-.02-6.49-.01-.06,1.67.09,3.36.01,5.03-.01.32-.25.56-.25.59-.52-1.1-.16-2.58-.24-3.79-.02-.28.14-.8-.36-.6-.97.38-.58,3.05-.61,4.04-.02.47.25.98-.49.84.08-1.25.19-5.51-.24-6.36.39-1.06-.36-1.37-.47-1.65-.65-1.61-.9-2.33-2.35-3.47-3.17-2.51-6.85-1.55-10.62-1.72,0-.57,0-1.14,0-1.71-.87-.14-.89-1.02-.97-1.84-.45-4.44.28-9.61.05-14.12.51-1.3,1.57-.92,2.38-1.29.5-.23,1.19-.9,1.66-1.03.39-.1,3.79-.58,4.1-.56.65.04.46.44.61.74-1.37.82-3.11.24-4.47.54-.58.13-1.24.81-1.83,1.11-.48.24-.92.18-1.28.31-.13.05-.3.1-.37.23-.17,4.17-.18,8.42-.13,12.61,0,.67.25,1.3.25,2.07,0,.41,0,.81,0,1.22,2.36.37,5.6-.28,8.06,0v-17.85c1.01.34.95-1.2,1.63-1.45.48-.17.76.23.81.23-.47.34-.67.45-.75,1.08-.27,2.25.2,4.63.27,6.85.05,1.62-.29,3.19,0,4.76,5.4-.35,10.83-.23,16.25-.24,12.33-.01,24.78-.53,37.12.02.87.04,5.19-.16,5.51.24.02.03.03.7,0,.73-.16.17-2.83.27-3.31.26-2.3-.05-4.71-.2-6.95-.26-7.79-.18-15.06.21-22.86.48s-15.36-.1-23.08.01c-.89.01-1.79,0-2.69,0v4.52c0,.19-.49.55-.13,1.1,1.55.8,3.54,2.08,4.49,3.58.81,1.29.33,2.61,2.1,2.79,4.19.42,8.53-.42,12.71-.51,17.73-.38,35.64.47,53.27.51,8.89.02,17.76-.2,26.65-.25.73-.14,1.06-1.53,1.48-2.18,1.21-1.83,2.35-2.93,4.26-4.05v-5.5c-1.46,0-2.94,0-4.4,0-9.28-.06-18.58-.03-27.86-.24-.82-.02-1.7.05-2.57.01s-2.2-.2-1.48-1.25c.31-.45,3.17-.17,3.94-.22,5.18-.31,10.2-.11,15.39-.02,4.94.08,11.55.83,16.37.27.25-.03.84-.11.84-.38v-12.47c0-.32-.57-.96-1.06-.83-.27.07-2.06,1.73-2.8,2.1-3.44,1.75-7.19,1.67-10.73.36-.58-.22-1.49-.98-1.92-1.02-.67-.07-2.89,1.03-3.96,1.16-1.23.14-4.24.03-4.7-1.4Z"/>
  <path class="cls-9" d="M20.33,111.58l-1.2,13.53c-1.28,1.01-4.74.14-5.1-1.48-.3-1.34-.12-5-.06-6.56.2-5.9.84-12.65,1.48-18.57.06-.59.28-2.71.55-2.99,9.69-3.47,4.07,7.81,4.46,12.65,4.32-3.61,7.3-8.54,10.86-12.85,1.29-1.24,3.69-.27,3.69,1.48,0,2.62-8.07,10.16-9.79,12.46l10.38,15.05c.63,1.79-1.95,2.2-3.35,1.63-3.08-1.24-8.7-11-11.22-13.95-.22-.25-.24-.51-.69-.41Z"/>
  <path class="cls-3" d="M148.36,79.06h-18.81l.53-1.54,8.56-15.03c.98-.21,6.14.19,6.55-.3.15-.17-.12-.98-.37-.98h-4.89c-.72,0,.21-1.67.4-2.04.18-.33.54-.59.74-.97.9-1.68,1.5-3.31,3.01-4.57h3.91l.37,25.42Z"/>
  <path class="cls-9" d="M108.05,111.33c.38.07.57-.03.87-.23,1.1-.72,3.22-2.61,4.27-3.55.94-.85,3.46-4.03,4.45-3.99,1.43.05,2.76,1.38,2.87,2.8s-1.8,3.16-2.81,4c-.95.79-3.58,2.06-4.02,2.58-.21.25-.3.36-.26.72,2.65,3.25,4.78,7.46,8.95,8.92.46.72-1.06,1.81-1.63,2.06-5.51,2.43-9.2-5.99-11.83-9.39-1.87-.45-1.58,7.39-1.94,8.56-1.04,1.11-4.33.16-4.72-1.15s.06-5.85.19-7.53c.57-6.96,2.04-13.88,2.89-20.81,1-1.47,4.25-.93,4.64.81.15.66.08,1.69.05,2.39-.22,4.61-1.54,9.22-1.95,13.81Z"/>
  <path class="cls-9" d="M181.58,119.65c1.02,2.09-1.69,4.51-3.59,4.82-2.1.34-3.88-.65-4.58-2.63-.22-.62-.21-2.73-.91-1.64-1.02,1.57-1.63,3.17-3.61,3.96-3.48,1.4-6.78-1.37-7.1-4.88-.68-7.53,3.53-16.98,12.48-14.93,1.62.37,4.49,1.51,4.65,3.43.26,3.09-1.99,8.82-1.07,11.81.79,2.58,3.1-.39,3.74.05ZM173.98,108.93c-.93-.19-1.37-1.94-2.27-1.99-3.76-.2-5.88,9.95-4.39,12.43s3.67-1.1,4.35-2.45c.53-1.06,2.73-7.29,2.31-7.99Z"/>
  <path class="cls-9" d="M51.15,120.83c.53.34,2.55-.32,2.65-.21.56,2-2.02,3.82-3.79,3.92-3.08.17-4.24-2.47-4.02-5.14-.57-.12-.39.07-.55.31-1.52,2.37-1.99,4.99-5.69,4.83-6.73-.29-4.97-10.87-4.2-15.22.25-1.4.48-4.4,1.99-4.61,6.04-.84,2.59,7.38,2.34,10.65-.11,1.37-.39,5.82,2.19,4.64,1.82-.84,3.74-7.66,4.28-9.65.39-1.43.44-5.03,2.2-5.37,1.22-.24,3.16-.07,3.49,1.39.3,1.38-.94,5.78-1.14,7.55-.13,1.19-.64,6.33.25,6.9Z"/>
  <path class="cls-3" d="M103.65,50.95c.01.16-.02.33,0,.49l-1.71,8.07c0,.16,0,.33,0,.49-.42.96-.52,2.14-.49,3.18,0,.16-.01.33,0,.49-.31.28-.23.62-.24.98-.02.57.04,1.15,0,1.71-.08,1.16-.19,2.43-.24,3.67-.02.41.02.82,0,1.22,0,.04-.24.28-.25.59-.07,1.67.07,3.36,0,5.03h-10.02c0-.97.01-1.96,0-2.93.53-.09.82.34.97-.37.46-2.09.27-4.47.5-6.6.41-3.77,1.06-7.97,2.07-11.61.85-3.05.82-3.68,4.14-3.92,1.55-.11,3.45.41,4.77-.48h.49Z"/>
  <path class="cls-9" d="M65.96,108.95c-.18-.21-.71-.31-.99-.27-1.91.33-4.27,6.21-4.75,7.97-.38,1.39-.77,6.08-1.28,6.79-1.02,1.44-4.69.41-4.68-2.22.01-3.86,1.23-8.39,1.26-12.46.02-1.95-1.25-3.93,1.81-4.05,3.63-.15,3.22,2.97,2.82,5.64,2.19-2.97,3.47-6.49,7.92-5.85,6.02.87,1.79,11.75,2.36,15.48.33,2.14,2.59.13,2.45,2.22-.09,1.34-2.57,2.4-3.8,2.33-7.45-.41-1.34-13.5-3.12-15.59Z"/>
  <path class="cls-3" d="M158.63,52.66c.85,3.48.5,16.28.25,20.42-.05.92-.6,5.64-1.15,6-1,.65-5.26-.02-6.68.22-.12-.07-.67.16-.75-.13-.12-.43-.06-3.64.02-4.27.11-.94.66-2.14.74-3.29.37-4.89-.12-10.04-.26-14.91-.05-1.51.05-3.03.01-4.53,2.58.46,5.19.56,7.82.49Z"/>
  <path class="cls-9" d="M101.82,103.26c.75.23.38,2.73-.37,3.3-.85.65-4.16.49-5.37.62-.23,3.42-1.31,7.2-.98,10.63.23,2.42,1.12,3.69,3.73,3.24.94-.16,2.87-1.92,2.89.18s-3.83,3.53-5.52,3.57c-8.9.18-5.42-12.27-5.25-17.62-1.88-.03-3.07.52-2.95-1.84.17-3.15,3.25-1.09,3.95-2.23.65-1.06.91-4.94,1.57-6.44s3.1-1.07,4.11-.26c1.23.99-.72,5.35-.56,6.86,1.22.23,3.74-.32,4.76,0Z"/>
  <path class="cls-9" d="M157.41,103.26h4.89c.32,0,.33,2.65-.5,3.29s-3.96.47-5.09.65c-.62.39-1.14,9.8-1.01,11.09.52,5.26,5.02,1.54,5.84,2.1,1.36,2.82-3.1,4.41-5.23,4.4-8.49-.04-5.23-12.48-4.76-17.62-1.37-.13-3.1.64-3.09-1.3.02-3.6,2.87-1.8,3.79-2.4.51-.33,1.23-7.31,2.65-7.74,1.06-.32,3.29.23,3.64,1.41.39,1.33-1.16,4.55-1.12,6.12Z"/>
  <path class="cls-3" d="M48.43,52.42c-1.69,5.75-3.48,10.36-4.15,16.5-.2,1.81-.02,6.14-.62,7.45-.09.2-3.2,2.65-3.42,2.69-.75.14-3.66.34-4.28.14-.99-.33-.69-1.03-.72-1.84.43-.01,1.01.15,1.35-.24.59-.68.49-4.84.61-5.99.47-4.51,2-13.36,4.35-17.16,1.28-2.08,4.74-.99,6.89-1.54Z"/>
  <path class="cls-9" d="M81.58,104.09c2.04-.02,4.67.79,5.11,3.07.17.87-.24,2.78-1.24,2.95-1.48.26-1.09-1.51-1.71-2.45-1.05-1.58-4.02-1.25-4.03.84-.02,3.04,6.81,5.43,7.03,10.09.33,7.05-9.59,8.74-13.01,4.22-1.41-1.86-.54-5.71,1.7-6.62,2.55-1.04.62,2.3.69,3.5.22,3.59,6.1,3.42,6.03.82-.08-3.21-6.89-6.02-7.09-10.54-.16-3.68,3.13-5.86,6.53-5.9Z"/>
  <path class="cls-3" d="M159.85,148.49c-.29,3.72.28,7.59.24,11.24,0,.24,0,.49,0,.73,0,.02-.21-.04-.24.36-.06.87-.01,1.72-.25,2.57-.16,0-.33-.01-.49,0-.53.04-1.56.24-1.83.24h-9.29c-.36,0-1.49-.44-1.83-.73,0-.08,0-.16,0-.24.91.29.89-.78.95-1.37.38-3.69-.76-7.07,1.49-10.44.16-.24.48-.14.5-.16.39,6.35,8.8,2.08,3.91-1.96.04,0,.27-.24.59-.25,2.08-.09,4.18.08,6.25.01Z"/>
  <path class="cls-3" d="M41.59,148.73c-2.54,1.5-1.96,5.43,1.34,5.13,1.54-.14,2.45-1.41,2.32-2.93.56-.48,1.04.07,1.35.48.37.47,1.22,2.25,1.58,2.94.43.85.32,5.11.24,6.36-.02.32.04.67,0,.98-.02.16-.31,1.36-.36,1.47-.13.28-.44.44-.74.48-3.43-.18-7.11.26-10.51.02-2.55-.18-1.72-.53-2.31-2.7,0-.16,0-.33,0-.49,0-.04.25-.31.24-.73.87.08.61.07.77-.56.82-3.23.48-7.38.21-10.68,1.72.1,3.57-.14,5.27-.01.32.02.53.25.59.25Z"/>
  <path class="cls-3" d="M42.81,127.95v17.85c-2.46-.28-5.7.37-8.06,0,0-.41,0-.81,0-1.22.79.14.41-.4.48-.85.5-3.2.47-8.44.26-11.74-.05-.76-.24-1.6-.5-2.31.35-.13.8-.07,1.28-.31.59-.29,1.25-.98,1.83-1.11,1.36-.31,3.1.28,4.47-.54.04.08.23.17.24.24Z"/>
  <path class="cls-7" d="M115.13,80.77c.04.46-.16.84-.35,1.23-.95,1.91-3.3,5.12-3.91,6.84-.2.58-.15,1.11-.13,1.7-4.67-.83-8.5-.95-9.04,4.89l-1.93-1.63c.71-3.02,1.95-5.98,2.88-8.97.22-.27,1.53-.09,2.21-.53,1.41-.91.76-5.96.02-7.44,2.74.92,5.49,1.89,8.19,2.92.65.25,1.34.72,2.07.99Z"/>
  <path class="cls-1" d="M94.12,51.2c-.33,2.26-1.39,4.33-1.88,6.55s-.42,5.12-1.05,7.14c-.02.06-.27.16-.24.34l.24.15c-.63,2.03-.52,6.33-.49,8.56.01.97,0,1.96,0,2.93h10.02c.06-1.67-.08-3.36,0-5.03.01-.32.25-.56.25-.59,1.43.37.86-1.03,1.71-.98-.02.66-.14,2.73,0,3.18-.74.04-1.57,1.16-1.48,1.81.01.1,1.28.86.26,1.74s-6.22-.11-6.74.59c-.17.24-.11.48-.11.75l8.99-.19c.72.41.73,4.03.32,4.67-.08.12-1.45.88-1.63.9-.74.1-.99-.44-1.46-.5-.12-.02-2.28-.01-2.41,0-.56.06-.94.69-1.12.74-.54.15-4.14.08-4.89,0-.88-.09-2.16-.73-3.09-.72-.6,0-1.88,1.16-1.79-.5h15.98c.27.03.12-.31.15-.49.07-.56.11-3.31-.41-3.43h-15.72c.03-.32.21-1.08-.36-.96-1.08.21-.12,1.5-1.7,1.72-3.98.54-10.39-.04-14.68-.02-.64,0-1.25.28-1.94.28-1.08,0-2.22-.47-3.37-.26-.47-1.16-1.92-2.05-2.39-3.05-.24-.51-.14-.9-.23-1.11,1.36.71,2.44,3.47,4.02,3.68h18.3c.64-2.08,1.42-2.39,3.58-2.21-.03-5.35.16-10.9,1.05-16.18.35-2.05,1.2-4.3,1.39-6.31.02-.16-.01-.33,0-.49,3.01.3,1.31-.96,2.32-2.45.19-.28.45-.17.61-.24Z"/>
  <path class="cls-4" d="M142.01,104.24c.86.14,1.19.18,1.95.24.08,0,.16,0,.24,0-.14,1,2.09,1.14,2.18,1.24.14.13-.09,1.16.01,1.54.06.22.46.14.48.17.35.48-.32.46-.38.56-.19.29-.17.99-.67.87-1.39-.33-.59-1.13-.68-1.55-.13-.59-2.19-1.29-2.41-1.12-.05.04.05.45,0,.49-.07.05-1.17-.01-1.47,0-.02,0-.13-.2-.32-.19-.07,0-1.34.38-1.39.43-.13.14.26,1.02.25,1.35,0,.64-.49,1.77-.2,2.26.19.33,1.36.49,1.41.55.15.16-.27.82-.2,1.07.08.34,1.6,1.57,2.16,1.12l-.24.98c.93-.48,1.44.47,2.44.25.07.09.17.16.24.24.26.81-.6.86-.7,1.02-.07.11.25,1.06-.03,1.42,1.98-.58,1.36-.12,1.73,1.08.5,1.65.32,2.14-.27,3.81-.03.07.03.18,0,.24-.65-.3-.77.48-.89.5-.43.07-1.03-.3-1.06-.26-.06.1.08.55-.01.79-.07.2-.33.19-.39.28-.2.32.03,1.07-.77.56-.04-.02-.05-.73-.54-.41-.02.01.04.35-.17.49-.71.45-2.96.71-3.74.73-.16,0-.33,0-.49,0,.2-.8-1.04-.53-1.22-.74-.57-.63.88-.32.73-.73-.61-.09-1.5.15-2.04-.04-.73-.25-.17-1.91-1.62-1.43-.16-.39-.17-.59-.24-.98h.73s-.73-1.71-.73-1.71c.05-.24.21-.37.24-.49.7.09,1.05-1.58,1.22-2.2.18-.14.32-.16.49-.24l.16.2c.25.12.99-.02,1.06.05.08.07-.17.46-.17.66,0,.21.17.3.17.32,0,.16.01.33,0,.49-.56-.09-.68.09-.24.49-.05.48.04.98,0,1.47-.02.21-.75.86.24.73,0,.08,0,.16,0,.24.01.48-.04.97.02,1.45.58-.15,1.01.36,1.4.44.34.08,1.26.23,1.66.3,1.48.25,1.16-.51,1.57-.97.3-.34.65-.48.98-.73.1-.08.96-.39.99-.65.08-.65-.98-1.72-.25-2.77-.24-.05-.89.07-.98,0-.52-.42.98-.53.49-.98-.11-.1-.65.35-.98.14s-.31-.84-.55-1.06c-.41-.36-1.52-.85-2.12-1.43-.54-.52-1.04-2.08-2.21-2.06-.07-.11-.46-.7-.49-.73.07-.5.02-.56-.49-.49-.03-.14.03-.34,0-.49,1.22-1.15.24-1.36.27-2.33,0-.11.38-1.33.47-1.58.04-.12-.03-.36.05-.57.11-.3.37-.31.44-.41.89.7,1.98-.67,2.2-1.47.28-.11.67-.15.98-.24,1.02.82.92-.2.98-.24.03-.02.6-.02.73,0ZM142.99,104.73c-1.02-.12-1.02.36,0,.24v-.24ZM140.06,111.33c-.27-.27-.75.22-.49.49s.75-.22.49-.49Z"/>
  <path class="cls-9" d="M132.97,120.13c.96,2.02-1.41,3.87-3.21,4.24-9.24,1.88-4.44-13.5-4.26-18.19.49-1.52,3.73-1.53,4.65-.47.52.61.42,2.01.37,2.8-.17,2.61-2,9.73-1.04,11.8.75,1.6,3.12-.44,3.48-.19Z"/>
  <path class="cls-3" d="M64.8,52.66c-.11.33-.11.98-.24,1.47-.05.18-.17.5-.24.73-.83.51-.93,1.61-1.22,2.44-.11.32-.16.66-.24.98-.04.16-.16.35-.24.73-.04.21-.25.36-.24.73l-.24.49c-.06.05.06.38,0,.49-.6,1.15-1.11,3.48-1.39,4.84-.4,1.91-.7,3.97-.81,5.92-.11-.07-.32-.15-.49-.24.06-.53.03-.55-.49-.49-.35-1.48-.57-.81-.98-1.22-.51-.52-.1-.69-.98-.98.08-.47-.03-.57-.49-.49-.09-.11-.55-.22-.73-.24-.49-.06-1.03-.01-1.47.24.47-3.18,1.48-6.76,2.51-9.83.36-1.06,1.63-4.94,2.55-5.27,1.5-.54,3.84-.18,5.44-.3Z"/>
  <path class="cls-9" d="M138.59,52.91c.27,1.9-1.14,3.15-1.67,4.81l-13.24,23.55c-.07-.05-.47.03-.71-.14-.66-.48-2.06-1.09-1.95-1.88,5.31-8.9,10.92-17.72,16.84-26.21.23-.13.47-.14.72-.12Z"/>
  <path class="cls-1" d="M160.34,57.06c.68,5.25.52,14.32-.03,19.65-.12,1.14-.92,2.8-.91,3.7,0,.58.75,2.65.94,3.54l-.98-.12c-.27,1,1.54,2.88.49,3.67-.53.4-5.06.54-5.71.32-.78-.26-1.25-2.64-1.54-3.35-.39-.95-1.45-1.66-.8-2.58.25-.36.68-.35.71-.38.44.85,1.1,5.62,1.83,5.62h4.76c.1-1.93-.73-3.77-1.26-5.59l-5.34-.03c.04-.06.5-1.27.49-1.34-.1-.58-1.42-.27-1.8-.37-.26-.06-.14-.48-.16-.49,1.42-.25,5.68.43,6.68-.22.55-.36,1.09-5.08,1.15-6,.24-4.14.6-16.94-.25-20.42-.11-.46-.39-.77-.49-1.22,2.05.33,1.1,1.99,1.22,3.03.08.65.87,1.79.97,2.59Z"/>
  <path class="cls-1" d="M50.14,162.91l94.07-.49s.3.12.14.47c-.89,1.9-1.92.32-2.69.3-.38-.01-.92.23-1.47.23-28.91-.12-57.86-.23-86.77,0-.48,0-1.17-.25-1.43-.2-.66.13-1.33,1.85-1.86-.3Z"/>
  <path class="cls-6" d="M138.59,52.91c.64.03,2.57,1.1,2.1,1.96l-15.32,27.59c-.83.4-1.59-1.13-1.68-1.19l13.24-23.55c.53-1.66,1.94-2.91,1.67-4.81Z"/>
  <path class="cls-7" d="M122.46,83.71l-8.06,14.42c-.24,0-.49.01-.73,0-.03-1.82.27-3.62-.72-5.26l6.37-11.09c.7-.5,2.61,1.48,3.15,1.93Z"/>
  <path class="cls-1" d="M64.55,58.77c-.17.82-.62,1.56-.49,2.44,5.82-.12,11.63-.33,17.48-.26.49,0,.94.22,1.43.23.81.01,4.04-.8,4.3.4.23,1.09-2.82.83-3.42.85-5.33.17-11.6.38-16.86.24-.72-.02-3.06-.59-3.45-.09-.55.71-1.1,3.89-1.33,4.97-.2.95-.17,2.22-.36,3.02-.05.19-.43.15-.48.34-.15.61.11,2.07.24,2.77-1-.14-.61-1.48-1.71-2.2.1-1.95.41-4.01.81-5.92.28-1.36.8-3.69,1.39-4.84.37-.07,1.18.13,1.43-.03.33-.21.09-2.1,1.01-1.92Z"/>
  <path class="cls-6" d="M131.26,52.91c-3.84,8.84-6.97,17.9-12.5,25.88-.35.21-1.94-.54-2.41-.7l14.91-25.18Z"/>
  <path class="cls-3" d="M160.34,57.06c1.15-.19.61.4.73,1.22.85,5.76,2,10.35,1.95,16.38,0,1.4-.06,2.52-.24,3.91-.28,2.09-.92,4.09-1.47,6.11l-.97-.49c-.02-.08.02-.17,0-.24-.19-.89-.93-2.96-.94-3.54-.01-.9.79-2.56.91-3.7.55-5.32.72-14.4.03-19.65Z"/>
  <path class="cls-2" d="M134.96,98.1c-.08-.05-.35-1.17-.56-1.52-.55-.91-1.39-1.36-1.9-2.21l4.74-5.78c.91.14,4.32,3.59,5,4.5-.96.67-3.48,4.6-4.13,4.92-.34.17-2.94.22-3.15.09Z"/>
  <path class="cls-3" d="M52.58,62.44l-1.27,7.65-5.2,4.08c-.68.02.83-10.86,1.34-11.74h5.13Z"/>
  <path class="cls-2" d="M89.45,98.11c-.11.1-2.61.09-2.91-.1l-4.53-6.49c-.2-.28-.06-.39.11-.61.54-.69,4.41-1.74,5.38-2.31.21,1.15,3.12,4.53,3.19,5.26.02.22-1.08,4.1-1.25,4.25Z"/>
  <path class="cls-3" d="M87.28,81.51c.46-1.03-.06-1.63,1.36-1.94h14.28c.18.17-.46,2.78.73,2.68-.02.18.12.52-.15.49h-15.98c-.08-.02-.17.01-.24,0v-1.22Z"/>
  <path class="cls-5" d="M35.23,77.35c-.26-6.2.91-13.1,2.93-18.95.34-.98,2.15-5.75,2.76-6.06,1.94-.98,5.6-.53,7.75-.66.09.32-.18.52-.24.73-2.16.54-5.61-.54-6.89,1.54-2.35,3.8-3.87,12.66-4.35,17.16-.12,1.15-.02,5.31-.61,5.99-.34.39-.92.23-1.35.24Z"/>
  <path class="cls-5" d="M150.08,38.24l2.44-.24c.21.19-2.71,3.98,1.71,2.69l-.24,1.71c1.03-.1,1.48-.99,2.44,0-.2.43-.43,1-.73,1.35-.55.63-3.98,2.28-4.83,2.5-1.62.41-3.32-1.74-4.17-2.95.69-1.35,1.35-2.88,2.3-4.07.35-.44.81-.46.84-.5l.24-.12-.24-.12c.08-.09.17-.16.24-.24Z"/>
  <path class="cls-3" d="M148.61,47.52l-5.11,3.56c-1.01,2.13-2.76.57-4.15-.29l.71-7.91c.72.06,3.69.56,3.88,1.13.33.96-1.71,3.64-1.88,4.92-.05.34-.08.95.32,1.04.97.2,2.63-4.41,3.46-4.62.53-.13,3.05,1.76,2.76,2.17Z"/>
  <path class="cls-3" d="M55.27,53.88c-.44.84-.69,1.79-.98,2.69-.48,1.54-.8,3.27-1.59,4.64h-4.76c-.04-1.21,1.58-6.83,2.3-7.35.54-.39,3.32-.26,4.2-.24.45,0,.76.26.83.26Z"/>
  <path class="cls-3" d="M97.3,83.95c.22.3.21.63.24.98.14,1.42.38,1.77,1.22,2.93-.06.08-.06,1.88,0,1.96-.54.34-.52,1.04-.73,1.47-1.96,1.28-4.05,1.88-6.11.36-.42-.31-.36-.95-.98-.85-.07-.31-.19-.71-.24-.98v-.98c0-.16,0-.33,0-.49.16-.69,1.15-1.3,1.34-1.72.22-.47.07-.81.13-1.21.06-.47-.1-1.01.24-1.47.75.08,4.35.15,4.89,0ZM96.74,86.95c-1.92-2.36-5.7.72-3.46,3.1,1.77,1.88,5.22-.93,3.46-3.1Z"/>
  <path class="cls-5" d="M141.28,35.06c.25.02.5.22.81.17.54-.09,1.09-1.19,1.39-.9.54.52-.12,4.42,1.84,2.69.78-.69,1.07-2.73,2.32-1.47-.09.39.03.93-.11,1.48-.23.93-2.11,4.21-2.8,4.77-.91.73-4.34-.22-4.62-1.04s.34-4.64.7-5.53c.09-.22.29-.19.48-.18Z"/>
  <path class="cls-1" d="M110.25,124.78c-.28,1.31-1.66,2.43-2.88,2.88-.32.12-.93,0-1.03.06-.28.16-.18,1.93-.25,2.32-.26,1.45-1.99,1.06-2.68,1.48-.34.21-.77,1.58-1.12,2.06-2.71,3.76-10.66,2.78-10.86-2.43.57-.03.93.17,1.22-.49.88,3.19,4.7,4.75,7.45,2.69,1.57-1.18,1.98-3.15,2.08-5.02.12-2.3-1.15-.94-2.45-.6,0-.13-.48-.51.35-.99,1.79-1.04,2.73,1.28,4.53.5.01.24,0,.49,0,.73-1.54-.31-.85.82-.98,1.83,1.17.54.98-.87.98-1.59.67-.39.41,1.35.97.73.05-.05.03-.77.24-1.06.15-.22.49-.14.5-.16.07-.12-.1-.57.24-.85.41-.35,1.58-.29,1.69-.4.07-.07.23-1.68.56-1.88.56-.33,1.25.2,1.43.2Z"/>
  <path class="cls-2" d="M150.08,38.24c.48-.51,2.8-2.89,3.18-3.06.57-.25.89.1,1.31.06.44-.04,2.65-1.33,3.08-.91l-.49,2.2h.98c.36.33-1.36,5.11-1.71,5.87-.96-.99-1.42-.1-2.44,0l.24-1.71c-4.42,1.29-1.5-2.5-1.71-2.69l-2.44.24Z"/>
  <path class="cls-2" d="M141.28,35.06c-.07-.71.09-2.46.61-2.94.33-.3.84-.17,1.22-.49s.87-1.99,1.55-1.66c.06.03-.04.68.63.42s.29-1.66,1.6-1.21v1.71s1.47-.24,1.47-.24c.2,1.7-.37,3.28-.73,4.89-1.25-1.27-1.54.78-2.32,1.47-1.95,1.73-1.3-2.17-1.84-2.69-.3-.28-.84.81-1.39.9-.31.05-.56-.15-.81-.17Z"/>
  <path class="cls-5" d="M103.16,50.95c-1.33.89-3.23.37-4.77.48-3.33.24-3.3.87-4.14,3.92-1.01,3.65-1.67,7.85-2.07,11.61-.23,2.13-.04,4.51-.5,6.6-.16.71-.44.28-.97.37-.03-2.23-.14-6.53.49-8.56.02-.06.27-.16.24-.34l-.24-.15c.63-2.02.56-4.91,1.05-7.14s1.55-4.29,1.88-6.55c.13-.06.46-.24.49-.24,2.34-.31,6.04,0,8.55,0Z"/>
  <path class="cls-3" d="M109.76,54.37c-.41,2.32-1.2,4.28-1.74,6.57-1.19.19-2.3.33-3.52.28-.47-.02-.98.25-.84-.49.07-.1-.05-.73,0-.98.34-1.71.93-3.42,1.22-5.13.04-.22.24-.46.24-.49,1.44.52,3.13.13,4.64.24Z"/>
  <path class="cls-9" d="M128.02,96.72c4.84-.99,4.89,6.83-.03,6.28-3.51-.39-3.4-5.58.03-6.28Z"/>
  <path class="cls-3" d="M106.58,62.44c.39.07.5.17.73.24-.88,2.57-1.5,5.42-2.43,7.95-.4,1.08-.77,2.37-1.72,3.05-.03-.04-.43-.04-.49-.24-.14-.44-.02-2.51,0-3.18.01-.33-.02-.65,0-.98.08-1.65.25-3.67.49-5.38.03-.23-.03-.5,0-.73.01-.09.33-.98.38-.99,1.01-.02,2.05.08,3.04.26Z"/>
  <path class="cls-5" d="M158.14,51.44c.1.45.38.76.49,1.22-2.62.08-5.23-.03-7.82-.49.04,1.5-.06,3.02-.01,4.53.15,4.87.63,10.02.26,14.91-.09,1.15-.63,2.35-.74,3.29-1-7.7-.38-15.51,0-23.22,2.48.22,5.39-.63,7.82-.24Z"/>
  <path class="cls-3" d="M92.65,130.64c-.04-.13.03-.34,0-.49-.15-.75-.22-1.17-.24-1.96,0-.16,0-.33,0-.49l2.2.24c.01.16,0,.33,0,.49.02.56-.06,1.18,0,1.71.05.43.09.59.24.98.11.27.05.5.35.75.22.19.46.15.63.23.92.44,2.11.89,2.93,0,.49,0,.73-.24.73-.73,1.03-.96.19-2.47.24-3.67,1.3-.34,2.57-1.7,2.45.6-.1,1.87-.51,3.84-2.08,5.02-2.76,2.07-6.57.5-7.45-2.69Z"/>
  <path class="cls-6" d="M114.4,98.13l8.06-14.42c.58.48,2.04.7,1.11,1.96l-6.96,12.11c-.52.54-1.49.38-2.21.35Z"/>
  <path class="cls-5" d="M34.74,147.51c3.77.17,7.45-.79,10.62,1.72,1.44,1.14,1.7,1.86,2.35,3.47.11.28.86.6.47,1.65-.35-.69-1.21-2.47-1.58-2.94-.32-.41-.8-.96-1.35-.48-.18-2.1-2.21-2.03-3.67-2.2-.06,0-.27-.23-.59-.25-1.7-.13-3.55.11-5.27.01.28,3.3.61,7.45-.21,10.68-.16.63.09.64-.77.56-.03-3.99.04-7.99,0-11.98,0-.08,0-.16,0-.24Z"/>
  <path class="cls-5" d="M159.12,147.51c.67.11.64.63.73.73v.24c-2.07.07-4.18-.1-6.25-.01-.32.01-.55.25-.59.25-1.76.11-1.96-.64-3.59,1.06-.17.18-.14.67-.32.9-.02.02-.34-.08-.5.16-2.24,3.37-1.11,6.76-1.49,10.44-.06.6-.04,1.67-.95,1.37.04-.64.01-1.31,0-1.96-.08-4.45-1.04-9.65,3.78-12.23,1.58-.84,7.39-1.26,9.17-.97Z"/>
  <path class="cls-2" d="M50.62,98.13c-1.4-.16-8.08,1.09-7.84-1.34.04-.36,4.02-3.62,4.29-3.55.29.52,3.84,4.63,3.55,4.89Z"/>
  <path class="cls-2" d="M84.35,98.13h-3.79c-.28,0-2.96-3.92-3.3-4.52,1.26-.41,2.96-2.3,4.02-.6l3.07,5.12Z"/>
  <path class="cls-5" d="M71.64,53.64c1.38-.02,2.77,0,4.15,0,4.5-.02,9.21-.17,13.68,0,.62.02,1.12.19,1.71.24-.01.16.02.33,0,.49-.88-.08-1.68.21-2.55.26-7.27.36-14.65-.25-21.88-.26,0-.72.2-.52.64-.61,1.36-.27,2.86-.1,4.24-.12Z"/>
  <path class="cls-3" d="M56.49,100.82l-2.45,1.58c-1.13.54-2.24-.89-3.3-1.08-1.43-.25-3.14-.01-4.39.71-.61.35-1.49,1.43-1.96,1.48-.88.09-2.6-1.79-3.77-2.09-.98-.25-1.9,0-2.82-.11-.45-.06-.39.08-.36-.49h19.06Z"/>
  <path class="cls-5" d="M59.42,51.93c.86-.06,1.81,0,2.69,0,.33,0,.65,0,.98,0h1.95c.05.08.18.14.24.24-.11.15-.45.36-.49.49-1.6.12-3.94-.24-5.44.3-.92.33-2.19,4.21-2.55,5.27-1.04,3.08-2.04,6.65-2.51,9.83v.24c-.13-.05-.46.15-.5-.15-.01-1.68.23-3.4.57-5.04.31-1.5.93-3.88,1.4-5.32l.24-.24c.04-.13-.04-.36,0-.49l.24-.49c.18-.48.51-1.23.73-1.71.37-.82.85-1.62,1.22-2.44.51-.27,0-.4,1.22-.49Z"/>
  <path class="cls-6" d="M115.13,80.77c.55.2,2.26.07,1.91,1.05-.93,1.19-5.06,8.74-5.99,8.95-.21.04-.29-.21-.32-.21-.02-.59-.07-1.12.13-1.7.61-1.72,2.96-4.93,3.91-6.84.2-.4.39-.77.35-1.23Z"/>
  <path class="cls-2" d="M146.9,93.73c-.4.77-1.32.71-2.01,1.04-1.35.66-3.43,1.86-3.85,3.36-.16,0-.33,0-.49,0l-.24-.49c.07-.08.28-.73.53-1.06.66-.87,3.22-3.41,2.43-4.45-.13-.17-3.53-2.2-1.85-2.56.57-.12,4.77,3.55,5.49,4.16Z"/>
  <path class="cls-1" d="M45.74,126.73c1.53.11,1.58.53,2.36.66,1.43.25,4.93-.87,6.31-.93,1.14-.05,2.33.75,3.4.68,1.62-.1,2.8-2.53,4.43-2.63,1.85-.11,1.5.85,2.34,1.59.71.61,1.14.15,1.45,1.12,1.21.24,1.27-.16,1.86-.17.75-.02,1.47.3,2.4.16.83-.13,1.39-.74,2.45-.72.99.01,3.44.56,3.31,1.96-.97-.09-2.19-1.14-2.83-1.23-.76-.11-2.97,1.02-4.38,1-.41,0-2.4-.33-2.67-.48s-.09-.35-.14-.51c-1.98-.38-2.88-2.19-3.07-2.22-.71-.11-1.64,1.54-2.62,2.02-3.17,1.54-4-.08-6.16-.01-.53.02-1.38.67-2.05.84-2.14.54-4.68.48-6.37-1.11Z"/>
  <path class="cls-3" d="M36.23,81.53c2.66-.88,1.97.02,2.81,1.43.57.96,2.16,2.42,2.45,3.42.35,1.24-1.88.63-2.52.31-.7-.35-3.12-4.6-2.74-5.16Z"/>
  <path class="cls-5" d="M87.52,78.82h15.72c.52.11.48,2.86.41,3.42-1.19.11-.55-2.51-.73-2.69h-14.28c-1.42.33-.9.93-1.36,1.96,0-.49-.03-.98,0-1.47.03-.59.22-.94.24-1.22Z"/>
  <path class="cls-5" d="M141.03,98.13c.42-1.49,2.5-2.7,3.85-3.36.69-.34,1.61-.27,2.01-1.04.2.17.91-.05.69.8-.05.2-2.32,3.26-2.51,3.37-.8.46-2.98.21-4.04.23Z"/>
  <path class="cls-2" d="M138.35,43.13c.22.27-.38,6.47-.7,6.95-.13.19-2.91.57-2.61-.6.45-1.74,2.34-4.13,2.77-6.03-.07-.38.47-.41.54-.31Z"/>
  <path class="cls-1" d="M110,53.64c1.34.2.09,3.33-.26,4.46-.06.2-.45.19-.48.35-.14.86.65,1.87-.64,2.73-.66.44-1.99.25-2.05,1.25-.99-.19-2.02-.28-3.04-.26-.05.01-.37.9-.38.99l-.73-.98c1.38.18.4-.57.51-1.09.07-.34.69-.35.71-.38-.14.74.37.47.84.49,1.22.05,2.33-.09,3.52-.28.54-2.29,1.33-4.25,1.74-6.57.02-.09.26-.3.24-.49v-.24Z"/>
  <path class="cls-3" d="M77.5,100.82c.49.38-.18.43-.35.51-.82.41-3.51,2.18-3.93,2.2-.18,0-2.62-1.87-2.98-2.15-.2-.16-.44,0-.31-.56.99.17,7.27-.23,7.57,0Z"/>
  <path class="cls-1" d="M161.07,58.29c1.13-.26.63.9.9,1.67,1.48,4.26,1.7,9.28,1.55,13.86-.02.47.25.98-.49.84.04-6.03-1.11-10.62-1.95-16.38Z"/>
  <path class="cls-1" d="M34.5,160.95c.6,2.17-.24,2.52,2.31,2.7,3.4.24,7.08-.19,10.51-.02.3-.04.61-.2.74-.48.05-.11.34-1.31.36-1.47.51.32.13,2.44,0,2.44h-13.56c-.33,0-1.57-2.92-.37-3.18Z"/>
  <path class="cls-1" d="M107.31,62.69c2.04.62.65.71.41,1.27-.36.85-.34,2.24-.73,3.18-.27.65-.88,1.08-1.08,1.61-.43,1.1-.79,4.88-2.01,5.56-.7.39-.59-.42-.74-.62.95-.68,1.32-1.97,1.72-3.05.94-2.54,1.55-5.38,2.43-7.95Z"/>
  <path class="cls-9" d="M141.28,106.69c-.93.94-1.35,1.75-.79,3.12.38.93,3.71,3.57,4.7,4.71-1.01.23-1.51-.72-2.44-.25l.24-.98c-.56.45-2.08-.78-2.16-1.12-.06-.26.35-.91.2-1.07-.05-.06-1.22-.21-1.41-.55-.29-.49.19-1.62.2-2.26,0-.34-.39-1.21-.25-1.35.05-.05,1.32-.43,1.39-.43.19-.02.3.19.32.19Z"/>
  <path class="cls-1" d="M103.65,51.44c0,.06.24.26.25.59.06,1.73-.7,2.28-.73,3.73-.01.79.56,2.47.72,1.19.14-1.12-.58-2.26.98-2.33-.29,1.72-.88,3.42-1.22,5.13-.35-.83-1.01-.42-1.71-.24l1.71-8.07Z"/>
  <path class="cls-9" d="M136.88,112.8c1.17-.02,1.67,1.53,2.21,2.06.6.58,1.71,1.08,2.12,1.43.24.21.24.86.55,1.06s.87-.24.98-.14c.5.44-1.01.55-.49.98.09.07.73-.05.98,0-.72,1.05.33,2.12.25,2.77-.03.26-.89.58-.99.65.48-3.8-3.5-5.29-5.48-8.09-.17-.24-.08-.63-.14-.71Z"/>
  <path class="cls-1" d="M34.74,147.75c.04,3.99-.03,7.99,0,11.98,0,.43-.24.69-.24.73-.73.14-.49-.38-.49-.85,0-.84.25-1.58.25-2.21-.03-2.84-.58-5.93-.26-8.81.06-.55.08-.85.75-.84Z"/>
  <path class="cls-1" d="M88.5,125.51c.1.06.61-.09.97.13.41.25.77,1.16.99,1.59-1.1.84-1.03,2.68.49,2.93.03.33.19.65.24.98-4.13,0-2.31-2.59-2.69-5.62l-2.71,1.82c-.19.17-.58.07-.71.14-.29-1.07.99-.75,1.34-1.47.31-.63.15-2.47,1.59-1.33.43.34.45.82.49.85Z"/>
  <path class="cls-1" d="M103.65,50.95h-.49c-2.51,0-6.21-.31-8.55,0-.03-.85-.15-.68.6-.73,1.87-.15,3.9-.2,5.65-.24.91-.02,1.3-.32,2.31.12,1.16.5.48.7.49.85Z"/>
  <path class="cls-9" d="M142.74,106.69c.05-.04-.05-.45,0-.49.21-.17,2.28.53,2.41,1.12.09.42-.71,1.21.68,1.55.5.12.48-.58.67-.87.06-.09.73-.08.38-.56-.02-.03-.42.05-.48-.17-.1-.38.13-1.41-.01-1.54-.1-.1-2.32-.24-2.18-1.24,2.46.19,4.17,2.99,2.56,5.13-1.89,2.5-2-1.23-2.45-1.94-.34-.53-1.06-.7-1.58-.99Z"/>
  <path class="cls-1" d="M159.12,163.4c0,.66-.29.69-.84.75-2.69.3-8.24.2-11.02,0-.46-.03-.89-.11-1.31-.27-.25-.38.22-.86.23-.96.35.29,1.48.73,1.83.73h9.29c.27,0,1.31-.2,1.83-.24Z"/>
  <path class="cls-3" d="M97.05,128.44c.43-.03.85,0,1.22.24.07.16.1.17.24.24l.24.49c-.04.24-.04.74,0,.98l-.24.49c-.19.1-.29.38-.65.45-.83.17-1.96-.28-2.03-1.18-.03-.41.35-1.05.49-1.47.12,0,.46-.23.73-.24Z"/>
  <path class="cls-1" d="M75.79,53.64c-.14-.74.37-.47.84-.49,3.83-.15,8.16-.13,12,0,.47.02.98-.25.84.49-4.47-.17-9.19-.02-13.68,0Z"/>
  <path class="cls-1" d="M159.85,148.24s.43-.11.49.16c.08.35-.07.81-.02,1.19.04.29.25.67.25.73v4.16c0,.09-.24.4-.25.72-.06,1.46.27,3.17-.24,4.53.03-3.65-.53-7.53-.24-11.24v-.24Z"/>
  <path class="cls-9" d="M145.43,114.75c1.8,2.24,2.24,3.41,1.54,6.31-.09.38-.21,1.18-.81,1.02.58-1.67.77-2.16.27-3.81-.37-1.21.25-1.66-1.73-1.08.28-.36-.03-1.31.03-1.42.1-.16.96-.22.7-1.02Z"/>
  <path class="cls-1" d="M84.59,127.71s-.2.35-.59.5c-2.16.82-5.37,1.19-7.48.23.03,0,.27-.25.59-.25,2.52-.03,4.97-.19,7.47-.48Z"/>
  <path class="cls-1" d="M162.78,78.57c1.23.18.52,2.17.29,2.85s-.79,1.37-.97,1.96c-.22.71.3,1.4-.6,1.85-1.16.58-.97-.16-1.16-1.04l.97.49c.55-2.02,1.19-4.02,1.47-6.11Z"/>
  <path class="cls-1" d="M123.69,126.73c-1.62,1.55-3.79,2.05-6,1.95-.47-.02-.98.25-.84-.49.9-.05,2.73-.39,3.68-.6.84-.18,1.72-.96,2.38-1.08.54-.1.74.21.78.21Z"/>
  <path class="cls-9" d="M146.17,122.33c-.99,2.35-5.21,3.52-7.57,2.69.78-.02,3.03-.29,3.74-.73.22-.14.15-.47.17-.49.49-.33.5.38.54.41.79.51.57-.24.77-.56.06-.09.32-.08.39-.28.09-.25-.05-.7.01-.79.03-.05.63.32,1.06.26.12-.02.24-.8.89-.5Z"/>
  <path class="cls-1" d="M58.2,52.42c-.38.82-.85,1.62-1.22,2.44-.53-.1-.83.08-1.26.33-.94.54-.65,1.24-1.43,1.38.28-.9.53-1.85.98-2.69,1.72.11,1.41-.84,2.21-1.35.25-.16.61-.06.72-.12Z"/>
  <path class="cls-3" d="M64.07,100.82c.14.57-.11.4-.31.56-1.89,1.48-1.94,1.25-3.77-.01-.22-.15-.45.04-.32-.55h4.4Z"/>
  <path class="cls-1" d="M98.76,89.82s.6-.17.48.35c-.19.83-.79.84-1.21,1.12-1.09,2.13-1.55,1.46-3.53,1.72-1,.13-1.17,1.07-2.23-.24-.25-.31-.29-.8-.42-.92-.47-.44-.58.33-.91-1.05.62-.11.56.54.98.85,2.05,1.52,4.14.92,6.11-.36.22-.43.2-1.13.73-1.47Z"/>
  <path class="cls-3" d="M134.44,53.64c.29.27-1.61,3.17-1.91,3.58-1.25,1.7-.48-.82-.16-1.63.22-.55,1.25-2.72,2.07-1.96Z"/>
  <path class="cls-3" d="M137.86,100.82l-.32.54-3.1,1.9c.35-2.63.87-2.63,3.42-2.44Z"/>
  <path class="cls-9" d="M141.52,122.33c-.41.46-.09,1.22-1.57.97-.4-.07-1.32-.22-1.66-.3-.38-.09-.81-.59-1.4-.44-.05-.48,0-.97-.02-1.45,1.27,1.38,2.88,1.55,4.64,1.22Z"/>
  <path class="cls-5" d="M109.27,53.64c.16,0,.33-.01.49,0l.24.24c.02.19-.23.4-.24.49-1.51-.12-3.2.28-4.64-.24,0-.08,0-.16,0-.24,1.14-.4,2.88-.3,4.15-.24Z"/>
  <path class="cls-9" d="M133.95,122.09c1.46-.47.89,1.19,1.62,1.43.54.19,1.44-.05,2.04.04.15.41-1.3.1-.73.73.18.2,1.42-.06,1.22.74-1.72,0-3.54-1.42-4.15-2.93Z"/>
  <path class="cls-1" d="M105.12,53.88c.01-.39-.91-1.4.62-1.49.87-.05.57.57,1,.72s1.18,0,1.69.04c.47.02.98-.25.84.49-1.28-.06-3.01-.16-4.15.24Z"/>
  <path class="cls-3" d="M90.94,127.95c.07.43-.03,1,0,1.47.01.24-.02.49,0,.73-1.52-.26-1.58-2.09-.49-2.93.08.15.38.08.49.73Z"/>
  <path class="cls-1" d="M66.26,54.37c.08-.23-.12-.56.24-.85.66-.54,3.34-.4,4.29-.37.47.02.98-.25.84.49-1.38.02-2.88-.14-4.24.12-.44.09-.65-.11-.64.61-.16,0-.33,0-.49,0Z"/>
  <path class="cls-1" d="M92.41,128.2c.02.78.09,1.21.24,1.96-.71-.06-.95-.89-1.71-.73-.03-.47.07-1.04,0-1.47l1.47.24Z"/>
  <path class="cls-9" d="M136.64,107.17c-.09.26-.46,1.47-.47,1.58-.02.97.95,1.18-.27,2.33-.02-.08-.24-.26-.25-.59-.03-.74-.06-3.19.99-3.32Z"/>
  <path class="cls-1" d="M96.32,128.69c-.14.41-.52,1.05-.49,1.47h-1.22c-.06-.53.02-1.15,0-1.71.59-.07,1.14.25,1.71.24Z"/>
  <path class="cls-1" d="M92.41,127.71c0-.33-.01-.65,0-.98.33,0,2.11.18,2.19.26.08.08,0,.72.01.96l-2.2-.24Z"/>
  <path class="cls-1" d="M87.28,80.04c-.03.48,0,.98,0,1.47v1.22c-.68-.13-.96-.37-1-1.1-.03-.53.09-1.93,1-1.59Z"/>
  <path class="cls-1" d="M97.54,84.93c.65-.08,1.74,2.54,1.73,2.79,0,.22-.49.12-.5.14-.84-1.16-1.09-1.52-1.22-2.93Z"/>
  <path class="cls-1" d="M92.17,85.42c-.05.4.09.75-.13,1.21-.19.42-1.18,1.02-1.34,1.72,0-.04-.24-.19-.24-.39-.02-.64.92-2.43,1.71-2.54Z"/>
  <path class="cls-1" d="M110.98,124.78c.1,0,.32-.44.97-.13.79.38.77,1.55,1.04,1.79.48.41,2.81.2,2.88,1.77-1.66-.28-3.87-2.08-4.89-3.42Z"/>
  <path class="cls-3" d="M104.63,127.95c0,.08,0,.16,0,.24,0,.72.19,2.13-.98,1.59.13-1.01-.56-2.14.98-1.83Z"/>
  <path class="cls-1" d="M59.42,51.93c-.14-.67.33-.48.77-.57.6-.12,2.24-.68,1.92.57-.87,0-1.83-.06-2.69,0Z"/>
  <path class="cls-1" d="M66.02,55.11c-.38,1.02-.63,2.49-1.47,3.18.21-.95.35-3.1,1.47-3.18Z"/>
  <path class="cls-9" d="M139.32,104.73c-.21.79-1.31,2.16-2.2,1.47.72-.91,1.18-1.05,2.2-1.47Z"/>
  <path class="cls-1" d="M160.09,160.46c.52.82.14,1.98.24,2.93-.24,0-.49,0-.73,0,.24-.85.2-1.7.25-2.57.03-.4.24-.34.24-.36Z"/>
  <path class="cls-1" d="M65.29,52.17c.08.13.46.2.5.42.11.61-.47,1.82-1.23,1.53.14-.48.14-1.14.24-1.47.04-.13.38-.34.49-.49Z"/>
  <path class="cls-9" d="M135.66,116.46c.17-.08.29-.4.65-.45,1.24-.17,1.43.87.57,1.67,0-.02-.16-.1-.17-.32s.24-.59.17-.66c-.07-.06-.8.08-1.06-.05l-.16-.2Z"/>
  <path class="cls-6" d="M77.75,91.04c.11.64-.1.44-.53.56-.85.23-1.67.53-1.43-.56h1.95Z"/>
  <path class="cls-9" d="M135.17,116.71c-.17.62-.52,2.29-1.22,2.2.4-1.23-.1-1.18,1.22-2.2Z"/>
  <path class="cls-9" d="M133.7,119.4l.73,1.71h-.73c-.03-.18-.27-.35-.28-.85,0-.53.24-.67.28-.86Z"/>
  <path class="cls-1" d="M58.93,70.75c.52-.06.55-.04.49.49-.34-.2-.29.35-.49-.49-.23.03-.89.34-.98.24v-1.47c.4.42.63-.26.98,1.22Z"/>
  <path class="cls-1" d="M64.31,54.86c-.22.69-.51,2.53-1.22,2.44.29-.84.39-1.93,1.22-2.44Z"/>
  <path class="cls-1" d="M63.09,51.93c-.27-.69.99-.58,1.6-.51s.26.37.35.51h-1.95Z"/>
  <path class="cls-1" d="M55.76,67.82c.23,1.14-.62.79-1.47.49v-.24c.44-.26.98-.3,1.47-.24Z"/>
  <path class="cls-9" d="M143.97,104.49c-.76-.07-1.1-.1-1.95-.24.4-.5,1.5-.09,1.95.24Z"/>
  <path class="cls-1" d="M98.27,128.69c-.38-.24-.79-.27-1.22-.24-.02-.51.33-.89.85-.73.44.14.28.78.37.98Z"/>
  <path class="cls-1" d="M62.6,74.91c-.99.07-.87-.26-.98-.98.77.03.76.45.98.98Z"/>
  <path class="cls-1" d="M94.85,131.13c.84-.18.84.28.98.98-.17-.08-.4-.04-.63-.23-.3-.26-.24-.48-.35-.75Z"/>
  <path class="cls-9" d="M141.28,104.24c-.06.04.04,1.07-.98.24.25-.08.53-.42.98-.24Z"/>
  <path class="cls-5" d="M140.3,97.64l.24.49s-.48.55-.73-.13c-.2-.54.45-.32.49-.36Z"/>
  <path class="cls-1" d="M99.5,131.38c0,.49-.25.73-.73.73.34-.37.36-.38.73-.73Z"/>
  <path class="cls-1" d="M62.84,58.29c.4.47.41.87-.24.73.08-.39.2-.57.24-.73Z"/>
  <path class="cls-9" d="M136.88,120.86c-.99.12-.26-.52-.24-.73.32.12.23.46.24.73Z"/>
  <path class="cls-1" d="M56.49,68.06c.46-.08.57.02.49.49-.88-.29-.24-.18-.49-.49Z"/>
  <path class="cls-9" d="M136.88,118.18c-.03.43-.24.46-.24.49-.44-.39-.32-.57.24-.49Z"/>
  <path class="cls-1" d="M98.52,128.93c.1.05.43-.06.49,0,.15.16-.24.46-.24.49l-.24-.49Z"/>
  <path class="cls-1" d="M98.76,130.4s.41.32.24.49c-.06.06-.39-.05-.49,0l.24-.49Z"/>
  <path class="cls-1" d="M62.35,59.75s.38.36.24.49c-.06.06-.42-.05-.49,0l.24-.49Z"/>
  <path class="cls-9" d="M135.9,111.58c.5-.07.56-.02.49.49-.17-.19-.27.45-.49-.49Z"/>
  <path class="cls-1" d="M90.7,89.82c-.16-.81.01-.76,0-.98v.98Z"/>
  <path class="cls-1" d="M56,57.06c.08-.24.2-.38.24-.49l-.24.49Z"/>
  <path class="cls-1" d="M55.76,57.8c.06-.19.24-.23.24-.24l-.24.24Z"/>
  <path class="cls-2" d="M149.83,38.73s-.04-.2,0-.24l.24.12-.24.12Z"/>
  <path class="cls-3" d="M110,53.88l-.24-.24c.08,0,.17-.01.24,0v.24Z"/>
  <path class="cls-5" d="M93.39,140.18c-.28.4-.64.45-1.09.5-3.17.31-7.22-.14-10.53-.02-11.56.42-23.14,2.34-34.69.5l.36-.49c7.72-.11,15.38.26,23.08-.01s15.06-.65,22.86-.48Z"/>
  <path class="cls-5" d="M145.19,140.66c.14.77-.38.41-.84.49-6.95,1.23-18.81.09-26.17-.25-.47-.02-.98.25-.84-.49,9.27.21,18.58.19,27.86.24Z"/>
  <path class="cls-1" d="M119.78,129.91c.07.34-.09.59-.41.69-.45.14-5.22.15-5.82.04-.74-.13-.79-.94-.49-.98,2.19-.27,4.5.53,6.72.25Z"/>
  <path class="cls-1" d="M78.97,130.64c-.14-.56.22-.58.67-.67,1.26-.25,2.6.18,3.84-.3v.97s-4.51,0-4.51,0Z"/>
  <path class="cls-8" d="M92.65,130.15c.03.15-.04.35,0,.49-.29.66-.65.46-1.22.49-.08,0-.16,0-.24,0-.05-.33-.21-.65-.24-.98-.02-.24.01-.49,0-.73.76-.16,1,.67,1.71.73Z"/>
  <path class="cls-5" d="M140.3,154.35c.03.57-.32.67-.77.82-.63.2-2.49.36-3.26.4-4.8.29-9.64.08-14.4,0-11.74-.22-23.46-.93-35.21-.98-8.98-.03-17.8.49-26.74-.23.69-.03,1.39.05,2.08,0,15.31-1.23,31.37-.11,46.66.01,10.55.09,21.11-.09,31.65-.01Z"/>
  <path class="cls-5" d="M83.86,62.44c.14.77-.39.44-.85.48-4.89.48-10.26.66-15.16.25-.47-.04-.98.28-.85-.49,5.26.13,11.53-.07,16.86-.24Z"/>
  <path class="cls-1" d="M54,90.99c-1.22.7-1.46-.92-.69-2.03,1.49-2.15,3.75-3.25,6.37-2.7,3.16.66,11.09,6.1,13.06,8.69.41.53,1.13,1.64,0,1.73-.77.06-2.02-1.65-2.69-2.21-2.43-2.06-8.85-6.63-11.97-6.63-1.13,0-1.93.48-2.69,1.24-.31.31-1.28,1.85-1.38,1.91Z"/>
  <path class="cls-3" d="M151.79,128.2c.02-.23-.11-.74.13-.74,2.49,1.14,5.31.76,7.94.49v17.85s-8.31,0-8.31,0c.18-.44.14-1.08.24-1.47,1.18-4.24,1.16-9.05.7-13.54-.08-.79-.22-1.95-.7-2.6Z"/>
  <path class="cls-5" d="M151.79,144.33c-.26-1.91-.29-3.82-.26-5.76.06-3.36,0-7.03.26-10.38.48.65.62,1.81.7,2.6.46,4.49.48,9.29-.7,13.54Z"/>
  <path class="cls-8" d="M173.98,108.93c.42.7-1.78,6.93-2.31,7.99-.68,1.35-2.87,4.92-4.35,2.45s.63-12.63,4.39-12.43c.89.05,1.34,1.8,2.27,1.99Z"/>
  <path class="cls-8" d="M101.94,59.51c.7-.18,1.36-.58,1.71.24-.05.25.07.87,0,.98-.02.03-.63.04-.71.38-.11.52.87,1.27-.51,1.09l.73.98c-.03.23.03.5,0,.73-.79-.14-.41.4-.48.85-.22,1.47-.87,3.2,0,4.53-.02.32.01.65,0,.98-.85-.05-.28,1.34-1.71.98.02-.41-.02-.82,0-1.22.37-.01.85-.27.92-.64.06-.34-.57-2.47-.68-3.03.04-.56-.02-1.14,0-1.71,1.04.15.26-.74.24-.98-.01-.16,0-.33,0-.49.14-.02.45.05.48,0,.07-.1.27-2.02.27-2.32,0-.59-.27-.81-.27-.85,0-.16,0-.33,0-.49Z"/>
  <path class="cls-1" d="M100.96,70.02c.06-1.23.17-2.51.24-3.67.11.56.74,2.69.68,3.03-.07.37-.56.63-.92.64Z"/>
  <path class="cls-1" d="M101.94,60s.27.26.27.85c0,.3-.21,2.23-.27,2.32-.04.05-.35-.01-.48,0-.03-1.03.07-2.22.49-3.18Z"/>
  <path class="cls-1" d="M101.45,63.66c.02.24.79,1.12-.24.98.01-.36-.07-.69.24-.98Z"/>
  <path class="cls-1" d="M153.01,148.73c4.9,4.04-3.52,8.31-3.91,1.96.18-.23.15-.72.32-.9,1.63-1.69,1.83-.95,3.59-1.06ZM150.56,151.18c.16,2.11,3.15,1.36,2.44-.49-.66-1.73-2.55-.92-2.44.49Z"/>
  <path class="cls-1" d="M45.25,150.93c.13,1.53-.78,2.8-2.32,2.93-3.31.29-3.88-3.63-1.34-5.13,1.45.17,3.49.1,3.67,2.2ZM41.34,151.18c.11,1.55,1.85,1.96,2.58.47.26-.52-.1-.57-.13-.72-.52-2.11-2.54-1.06-2.44.24Z"/>
  <path class="cls-5" d="M34.99,129.66c.26.71.45,1.55.5,2.31.2,3.3.24,8.54-.26,11.74-.07.45.31.99-.48.85,0-.76-.25-1.4-.25-2.07-.05-4.19-.04-8.44.13-12.61.07-.13.23-.18.37-.23Z"/>
  <path class="cls-3" d="M91.19,65.37l-.24-.15c-.03-.18.22-.28.24-.34l.24.15c.03.18-.22.28-.24.34Z"/>
  <path class="cls-9" d="M140.06,111.33c.27.27-.22.75-.49.49s.22-.75.49-.49Z"/>
  <path class="cls-9" d="M142.99,104.73v.24c-1.02.12-1.02-.36,0-.24Z"/>
  <path class="cls-3" d="M152.52,81.51l5.34.03c.52,1.82,1.35,3.65,1.26,5.59h-4.76c-.73,0-1.39-4.77-1.83-5.62Z"/>
  <path class="cls-1" d="M96.74,86.95c1.76,2.17-1.69,4.98-3.46,3.1-2.24-2.38,1.54-5.46,3.46-3.1ZM94.79,87.17c-1.61.31-1.04,2.61.62,2.12,1.1-.33.8-2.39-.62-2.12Z"/>
  <path class="cls-1" d="M103.16,63.91c-.24,1.71-.41,3.72-.49,5.38-.86-1.33-.21-3.05,0-4.53.07-.46-.31-.99.48-.85Z"/>
  <path class="cls-3" d="M153.01,150.69c.71,1.85-2.28,2.6-2.44.49l2.44-.49Z"/>
  <path class="cls-5" d="M153.01,150.69l-2.44.49c-.11-1.41,1.78-2.22,2.44-.49Z"/>
  <path class="cls-3" d="M43.78,150.93c.04.15.39.19.13.72-.73,1.49-2.47,1.08-2.58-.47l2.44-.24Z"/>
  <path class="cls-5" d="M43.78,150.93l-2.44.24c-.09-1.31,1.93-2.36,2.44-.24Z"/>
  <path class="cls-3" d="M94.79,87.17c1.42-.27,1.72,1.79.62,2.12-1.66.5-2.23-1.81-.62-2.12Z"/>
</svg>